<svg width="285" height="353" viewBox="0 0 285 353" fill="none" xmlns="http://www.w3.org/2000/svg">
<g filter="url(#filter0_f_2067_886)">
<g opacity="0.3">
<path opacity="0.0344828" d="M-119.413 282.266C-126.304 281.617 -130.63 278.039 -132.291 271.854C-133.944 265.694 -132.915 257.076 -129.378 246.602C-122.308 225.661 -105.248 197.395 -79.8624 166.773C-54.4766 136.152 -25.5935 108.999 0.566831 89.8556C13.6509 80.2811 26.0254 72.731 36.9125 67.7526C47.8456 62.7531 57.0469 60.4496 63.9378 61.0985C70.8287 61.7475 75.1546 65.3249 76.8152 71.5104C78.4688 77.6699 77.4393 86.2884 73.903 96.7621C66.8325 117.703 49.7728 145.969 24.387 176.591C-0.998725 207.212 -29.8818 234.365 -56.0422 253.508C-69.1262 263.083 -81.5008 270.633 -92.3879 275.612C-103.321 280.611 -112.522 282.915 -119.413 282.266Z" stroke="#FF668A" stroke-width="1.27527"/>
<path opacity="0.0689655" d="M-140.776 280.435C-144.055 279.971 -146.585 278.8 -148.356 276.936C-150.129 275.07 -151.119 272.529 -151.333 269.372C-151.763 263.06 -149.087 254.366 -143.598 243.896C-132.623 222.963 -110.449 195.017 -79.6669 165.026C-48.885 135.035 -15.3469 108.699 13.9792 90.3666C28.6466 81.1976 42.2308 74.0492 53.8629 69.4461C59.6793 67.1444 64.9719 65.4935 69.6395 64.5398C74.3003 63.5875 78.2867 63.3401 81.5651 63.8046C84.8434 64.2692 87.374 65.4402 89.1446 67.3038C90.9178 69.1702 91.9078 71.7114 92.1223 74.8677C92.5514 81.18 89.8754 89.8742 84.3864 100.344C73.4117 121.277 51.2377 149.223 20.4558 179.214C-10.3261 209.205 -43.8643 235.541 -73.1904 253.873C-87.8577 263.042 -101.442 270.191 -113.074 274.794C-118.89 277.096 -124.183 278.747 -128.851 279.7C-133.511 280.652 -137.498 280.9 -140.776 280.435Z" stroke="#FF668A" stroke-width="1.27527"/>
<path opacity="0.103448" d="M-161.297 277.777C-164.381 277.18 -166.626 275.902 -168 273.94C-169.376 271.977 -169.855 269.36 -169.455 266.151C-168.654 259.734 -164.35 251.031 -156.95 240.645C-142.153 219.881 -115.033 192.469 -79.0886 163.337C-43.1443 134.204 -5.20585 108.887 27.0631 91.5064C43.2022 82.8134 57.8932 76.1218 70.1825 71.9298C76.3285 69.8333 81.8343 68.3757 86.5896 67.5999C91.341 66.8247 95.2658 66.7414 98.3495 67.3386C101.433 67.9358 103.678 69.214 105.053 71.1756C106.429 73.1388 106.908 75.7554 106.507 78.9646C105.707 85.3816 101.403 94.0849 94.0024 104.47C79.2056 125.235 52.0852 152.647 16.141 181.779C-19.8032 210.911 -57.7417 236.228 -90.0107 253.609C-106.15 262.302 -120.841 268.994 -133.13 273.186C-139.276 275.282 -144.782 276.74 -149.537 277.516C-154.289 278.291 -158.213 278.374 -161.297 277.777Z" stroke="#FF668A" stroke-width="1.27527"/>
<path opacity="0.137931" d="M-180.832 274.315C-183.695 273.595 -185.644 272.222 -186.612 270.175C-187.58 268.129 -187.543 265.457 -186.53 262.219C-184.505 255.747 -178.605 247.101 -169.349 236.879C-150.841 216.442 -118.98 189.773 -78.1471 161.723C-37.3139 133.672 4.73655 109.567 39.7028 93.2709C57.1907 85.1205 72.8771 78.9374 85.7301 75.1892C92.1591 73.3143 97.8368 72.0613 102.645 71.469C107.455 70.8765 111.285 70.9572 114.148 71.6776C117.011 72.398 118.959 73.7713 119.927 75.8176C120.896 77.8633 120.859 80.5357 119.846 83.7734C117.82 90.246 111.92 98.8916 102.664 109.113C84.1567 129.551 52.2959 156.22 11.4626 184.27C-29.3707 212.321 -71.4211 236.426 -106.387 252.722C-123.875 260.872 -139.562 267.055 -152.415 270.804C-158.844 272.678 -164.521 273.931 -169.33 274.524C-174.139 275.116 -177.969 275.036 -180.832 274.315Z" stroke="#FF668A" stroke-width="1.27527"/>
<path opacity="0.172414" d="M-199.245 270.078C-201.865 269.246 -203.509 267.79 -204.063 265.672C-204.615 263.559 -204.063 260.851 -202.443 257.61C-199.207 251.131 -191.755 242.609 -180.713 232.63C-158.636 212.675 -122.276 186.954 -76.8647 160.199C-31.4531 133.444 14.3893 110.735 51.7865 95.6486C70.49 88.1034 87.0522 82.4766 100.371 79.2014C107.034 77.5629 112.841 76.5242 117.667 76.12C122.502 75.7149 126.205 75.9576 128.825 76.7901C131.445 77.6227 133.089 79.0787 133.643 81.1962C134.196 83.3095 133.643 86.0177 132.024 89.2588C128.787 95.7375 121.335 104.259 110.293 114.239C88.2157 134.193 51.8565 159.915 6.44487 186.67C-38.9667 213.425 -84.8091 236.133 -122.206 251.22C-140.91 258.765 -157.472 264.392 -170.791 267.667C-177.454 269.305 -183.261 270.344 -188.087 270.748C-192.922 271.153 -196.625 270.911 -199.245 270.078Z" stroke="#FF668A" stroke-width="1.27527"/>
<path opacity="0.206897" d="M-216.41 265.103C-218.769 264.171 -220.103 262.644 -220.236 260.47C-220.369 258.304 -219.303 255.581 -217.09 252.361C-212.666 245.926 -203.718 237.594 -190.975 227.933C-165.494 208.615 -124.914 184.036 -75.2693 158.781C-25.625 133.526 23.6604 112.387 63.2036 98.6258C82.9801 91.7435 100.292 86.7166 113.975 83.9401C120.82 82.551 126.713 81.7347 131.52 81.5218C136.349 81.308 139.894 81.7093 142.254 82.6415C144.613 83.5738 145.946 85.1005 146.08 87.2752C146.213 89.4403 145.147 92.1637 142.934 95.3833C138.509 101.818 129.562 110.15 116.818 119.812C91.338 139.13 50.7572 163.708 1.11286 188.964C-48.5314 214.219 -97.8168 235.358 -137.36 249.119C-157.137 256.001 -174.448 261.028 -188.131 263.805C-194.977 265.194 -200.869 266.01 -205.676 266.223C-210.505 266.437 -214.051 266.035 -216.41 265.103Z" stroke="#FF668A" stroke-width="1.27527"/>
<path opacity="0.241379" d="M-232.21 259.431C-234.296 258.412 -235.316 256.826 -235.026 254.609C-234.737 252.408 -233.166 249.69 -230.375 246.517C-224.796 240.176 -214.42 232.097 -200.072 222.828C-171.383 204.293 -126.889 181.046 -73.3902 157.483C-19.8911 133.92 32.4618 114.512 73.8496 102.182C94.5483 96.015 112.477 91.6268 126.419 89.3709C133.395 88.2421 139.328 87.6549 144.08 87.6352C148.868 87.6154 152.229 88.1704 154.316 89.1896C156.402 90.2089 157.422 91.7948 157.132 94.0117C156.843 96.2124 155.272 98.9302 152.48 102.103C146.902 108.445 136.526 116.524 122.178 125.793C93.4887 144.327 48.9952 167.575 -4.50385 191.138C-58.0029 214.701 -110.356 234.109 -151.744 246.439C-172.442 252.606 -190.371 256.994 -204.313 259.25C-211.289 260.379 -217.222 260.966 -221.974 260.985C-226.762 261.005 -230.123 260.45 -232.21 259.431Z" stroke="#FF668A" stroke-width="1.27527"/>
<path opacity="0.275862" d="M-246.535 253.109C-248.342 252.014 -249.049 250.379 -248.333 248.137C-247.624 245.917 -245.558 243.226 -242.21 240.124C-235.519 233.924 -223.794 226.161 -207.95 217.355C-176.271 199.746 -128.203 178.007 -71.2571 156.315C-14.3107 134.624 40.711 117.096 83.6277 106.291C105.091 100.887 123.5 97.1713 137.594 95.4537C144.646 94.5943 150.573 94.241 155.235 94.415C159.946 94.5909 163.1 95.2932 164.907 96.3876C166.715 97.482 167.421 99.1167 166.705 101.36C165.996 103.579 163.93 106.27 160.582 109.373C153.891 115.572 142.166 123.335 126.322 132.142C94.6428 149.751 46.5756 171.49 -10.3708 193.181C-67.3172 214.872 -122.339 232.4 -165.256 243.205C-186.719 248.609 -205.128 252.325 -219.222 254.042C-226.274 254.902 -232.201 255.255 -236.863 255.081C-241.574 254.905 -244.728 254.203 -246.535 253.109Z" stroke="#FF668A" stroke-width="1.27527"/>
<path opacity="0.310345" d="M-259.294 246.188C-260.823 245.028 -261.212 243.353 -260.074 241.102C-258.95 238.881 -256.405 236.237 -252.526 233.23C-244.773 227.22 -231.788 219.833 -214.57 211.557C-180.141 195.007 -128.867 174.943 -68.9067 155.289C-8.94665 135.635 48.3246 120.12 92.4428 110.922C114.506 106.323 133.255 103.309 147.393 102.143C154.467 101.56 160.343 101.443 164.877 101.81C169.472 102.182 172.4 103.024 173.93 104.184C175.459 105.345 175.848 107.019 174.709 109.27C173.586 111.491 171.041 114.135 167.162 117.142C159.409 123.152 146.424 130.54 129.206 138.816C94.7773 155.365 43.5025 175.43 -16.4575 195.084C-76.4176 214.738 -133.689 230.253 -177.807 239.45C-199.871 244.05 -218.62 247.064 -232.757 248.229C-239.831 248.813 -245.707 248.929 -250.241 248.562C-254.837 248.191 -257.764 247.349 -259.294 246.188Z" stroke="#FF668A" stroke-width="1.27527"/>
<path opacity="0.344828" d="M-270.402 238.726C-271.658 237.504 -271.726 235.799 -270.172 233.559C-268.642 231.353 -265.638 228.778 -261.257 225.889C-252.501 220.116 -238.356 213.16 -219.895 205.477C-182.98 190.114 -128.889 171.877 -66.3717 154.41C-3.85485 136.943 55.2294 123.56 100.212 116.041C122.708 112.28 141.653 109.991 155.725 109.387C162.766 109.084 168.545 109.206 172.916 109.762C177.356 110.328 180.043 111.301 181.3 112.523C182.557 113.745 182.625 115.45 181.071 117.69C179.54 119.896 176.536 122.471 172.155 125.36C163.4 131.133 149.255 138.089 130.793 145.772C93.8783 161.135 39.7869 179.372 -22.7299 196.839C-85.2468 214.306 -144.331 227.689 -189.314 235.208C-211.81 238.969 -230.755 241.258 -244.826 241.863C-251.868 242.165 -257.646 242.043 -262.018 241.487C-266.457 240.921 -269.145 239.948 -270.402 238.726Z" stroke="#FF668A" stroke-width="1.27527"/>
<path opacity="0.37931" d="M-279.787 230.782C-280.777 229.499 -280.518 227.771 -278.562 225.563C-276.636 223.39 -273.196 220.903 -268.347 218.155C-258.657 212.663 -243.46 206.193 -223.896 199.162C-184.777 185.103 -128.281 168.832 -63.6834 153.685C0.914096 138.538 61.3609 127.389 106.865 121.605C129.622 118.713 148.617 117.166 162.515 117.127C169.469 117.108 175.105 117.467 179.279 118.209C183.521 118.964 185.959 120.06 186.948 121.343C187.938 122.626 187.679 124.354 185.723 126.562C183.798 128.734 180.357 131.221 175.508 133.97C165.818 139.462 150.621 145.932 131.058 152.963C91.9377 167.022 35.4419 183.293 -29.1555 198.44C-93.753 213.586 -154.2 224.736 -199.704 230.519C-222.461 233.412 -241.456 234.959 -255.353 234.997C-262.308 235.017 -267.944 234.658 -272.118 233.915C-276.36 233.161 -278.798 232.065 -279.787 230.782Z" stroke="#FF668A" stroke-width="1.27527"/>
<path opacity="0.413793" d="M-287.394 222.421C-288.119 221.075 -287.527 219.332 -285.186 217.177C-282.881 215.055 -279.032 212.676 -273.752 210.089C-263.202 204.92 -247.07 198.985 -226.553 192.66C-185.527 180.012 -127.058 165.831 -60.8718 153.12C5.31415 140.409 66.6626 131.578 112.341 127.575C135.185 125.572 154.085 124.78 167.701 125.307C174.515 125.572 179.964 126.165 183.907 127.087C187.912 128.023 190.093 129.233 190.817 130.58C191.542 131.927 190.95 133.669 188.609 135.824C186.304 137.946 182.455 140.325 177.176 142.912C166.625 148.081 150.494 154.016 129.976 160.341C88.9503 172.989 30.481 187.17 -35.7049 199.881C-101.891 212.592 -163.239 221.423 -208.918 225.426C-231.762 227.429 -250.661 228.221 -264.278 227.694C-271.091 227.43 -276.54 226.836 -280.484 225.914C-284.488 224.978 -286.669 223.768 -287.394 222.421Z" stroke="#FF668A" stroke-width="1.27527"/>
<path opacity="0.448276" d="M-293.176 213.71C-293.631 212.298 -292.701 210.551 -289.999 208.469C-287.333 206.414 -283.105 204.161 -277.436 201.756C-266.107 196.951 -249.164 191.596 -227.85 186.024C-185.231 174.884 -125.234 162.902 -57.9643 152.723C9.3058 142.544 71.0882 136.1 116.592 133.906C139.349 132.809 158.008 132.777 171.238 133.867C177.858 134.412 183.078 135.235 186.76 136.33C190.491 137.439 192.409 138.755 192.864 140.167C193.319 141.58 192.389 143.326 189.687 145.409C187.021 147.464 182.793 149.717 177.124 152.121C165.795 156.927 148.852 162.282 127.538 167.853C84.9193 178.994 24.9223 190.976 -42.3478 201.154C-109.618 211.333 -171.4 217.778 -216.904 219.971C-239.661 221.068 -258.32 221.1 -271.55 220.011C-278.171 219.465 -283.39 218.642 -287.072 217.548C-290.803 216.439 -292.721 215.123 -293.176 213.71Z" stroke="#FF668A" stroke-width="1.27527"/>
<path opacity="0.482759" d="M-297.104 204.719C-297.281 203.242 -296.011 201.503 -292.973 199.51C-289.967 197.538 -285.394 195.429 -279.379 193.225C-267.359 188.819 -249.735 184.086 -227.787 179.311C-183.901 169.762 -122.834 160.07 -54.9919 152.501C12.8498 144.933 74.5951 140.923 119.577 140.556C142.073 140.373 160.349 141.101 173.091 142.744C179.467 143.567 184.416 144.613 187.808 145.871C191.235 147.143 192.881 148.557 193.057 150.034C193.233 151.511 191.964 153.25 188.926 155.243C185.92 157.215 181.347 159.323 175.332 161.528C163.312 165.934 145.688 170.667 123.74 175.442C79.8537 184.99 18.7865 194.683 -49.0552 202.251C-116.897 209.82 -178.642 213.83 -223.624 214.196C-246.12 214.38 -264.396 213.651 -277.138 212.008C-283.514 211.186 -288.463 210.14 -291.855 208.882C-295.282 207.61 -296.928 206.196 -297.104 204.719Z" stroke="#FF668A" stroke-width="1.27527"/>
<path opacity="0.517241" d="M-299.164 195.521C-299.049 193.985 -297.442 192.265 -294.096 190.378C-290.773 188.504 -285.891 186.556 -279.578 184.568C-266.96 180.596 -248.79 176.52 -226.375 172.578C-181.556 164.695 -119.885 157.366 -51.9884 152.464C15.908 147.563 77.1454 146.019 121.262 147.482C143.326 148.213 161.078 149.696 173.234 151.88C179.316 152.972 183.958 154.233 187.033 155.645C190.131 157.068 191.496 158.573 191.38 160.108C191.265 161.644 189.659 163.364 186.312 165.251C182.99 167.125 178.107 169.073 171.794 171.061C159.176 175.033 141.006 179.109 118.591 183.051C73.7726 190.935 12.1009 198.263 -55.7954 203.165C-123.692 208.066 -184.929 209.61 -229.046 208.147C-251.11 207.416 -268.862 205.933 -281.018 203.749C-287.1 202.657 -291.741 201.396 -294.817 199.984C-297.915 198.562 -299.279 197.056 -299.164 195.521Z" stroke="#FF668A" stroke-width="1.27527"/>
<path opacity="0.551724" d="M-299.353 186.188C-298.934 184.604 -296.999 182.918 -293.37 181.149C-289.758 179.387 -284.604 177.614 -278.041 175.859C-264.922 172.351 -246.346 168.963 -223.636 165.883C-178.227 159.725 -116.421 154.815 -48.9876 152.618C18.4461 150.421 78.7086 151.354 121.624 154.635C143.087 156.276 160.18 158.502 171.657 161.208C177.399 162.563 181.697 164.028 184.433 165.583C187.182 167.144 188.252 168.733 187.834 170.316C187.415 171.9 185.48 173.586 181.852 175.356C178.239 177.117 173.085 178.891 166.522 180.646C153.403 184.154 134.827 187.542 112.117 190.622C66.7084 196.78 4.90239 201.689 -62.5313 203.886C-129.965 206.083 -190.228 205.15 -233.143 201.869C-254.606 200.229 -271.699 198.003 -283.176 195.296C-288.918 193.942 -293.215 192.476 -295.952 190.922C-298.701 189.36 -299.771 187.772 -299.353 186.188Z" stroke="#FF668A" stroke-width="1.27527"/>
<path opacity="0.586207" d="M-297.684 176.797C-296.954 175.179 -294.703 173.54 -290.82 171.901C-286.944 170.265 -281.559 168.679 -274.797 167.17C-261.279 164.152 -242.439 161.478 -219.607 159.284C-173.955 154.898 -112.486 152.444 -46.029 152.968C20.4283 153.492 79.2565 156.895 120.643 161.968C141.341 164.505 157.644 167.457 168.354 170.665C173.712 172.271 177.634 173.929 180.012 175.615C182.395 177.304 183.157 178.966 182.428 180.584C181.698 182.202 179.447 183.841 175.563 185.48C171.688 187.116 166.303 188.702 159.54 190.211C146.023 193.229 127.183 195.903 104.351 198.097C58.6988 202.484 -2.77006 204.937 -69.2273 204.413C-135.685 203.889 -194.513 200.486 -235.899 195.413C-256.597 192.876 -272.9 189.924 -283.611 186.716C-288.969 185.111 -292.891 183.452 -295.268 181.766C-297.651 180.078 -298.414 178.415 -297.684 176.797Z" stroke="#FF668A" stroke-width="1.27527"/>
<path opacity="0.62069" d="M-294.184 167.422C-293.139 165.785 -290.588 164.209 -286.478 162.71C-282.369 161.211 -276.793 159.825 -269.884 158.573C-256.071 156.068 -237.112 154.128 -214.332 152.836C-168.786 150.254 -108.123 150.275 -43.1485 153.516C21.826 156.757 78.7714 162.603 118.313 169.429C138.089 172.843 153.478 176.497 163.34 180.182C168.273 182.026 171.79 183.865 173.792 185.668C175.794 187.472 176.237 189.198 175.192 190.835C174.148 192.472 171.596 194.049 167.486 195.548C163.377 197.046 157.802 198.432 150.893 199.684C137.08 202.189 118.121 204.129 95.341 205.421C49.7946 208.003 -10.8686 207.982 -75.843 204.741C-140.817 201.5 -197.763 195.655 -237.304 188.828C-257.08 185.414 -272.469 181.76 -282.331 178.075C-287.264 176.232 -290.782 174.392 -292.783 172.589C-294.785 170.785 -295.228 169.059 -294.184 167.422Z" stroke="#FF668A" stroke-width="1.27527"/>
<path opacity="0.655172" d="M-288.895 158.139C-287.536 156.5 -284.705 154.999 -280.397 153.65C-276.084 152.3 -270.361 151.125 -263.359 150.138C-249.357 148.165 -230.424 146.973 -207.871 146.593C-162.778 145.835 -103.383 148.329 -40.3867 154.262C22.6096 160.195 77.2381 168.438 114.633 176.965C133.336 181.23 147.693 185.558 156.633 189.691C161.104 191.758 164.19 193.763 165.801 195.671C167.411 197.577 167.524 199.356 166.165 200.994C164.807 202.633 161.975 204.134 157.667 205.483C153.355 206.834 147.631 208.009 140.629 208.996C126.627 210.968 107.694 212.161 85.141 212.54C40.048 213.299 -19.3466 210.804 -82.343 204.872C-145.339 198.939 -199.968 190.695 -237.363 182.168C-256.066 177.904 -270.423 173.576 -279.363 169.443C-283.834 167.376 -286.92 165.371 -288.531 163.463C-290.141 161.556 -290.253 159.778 -288.895 158.139Z" stroke="#FF668A" stroke-width="1.27527"/>
<path opacity="0.689655" d="M-281.87 149.022C-280.203 147.398 -277.115 145.987 -272.638 144.796C-268.154 143.604 -262.326 142.648 -255.284 141.934C-241.201 140.508 -222.439 140.072 -200.285 140.607C-155.99 141.677 -98.3164 146.625 -37.7781 155.204C22.7602 163.783 74.6551 174.361 109.619 184.522C127.106 189.605 140.322 194.572 148.272 199.121C152.248 201.396 154.881 203.551 156.09 205.55C157.297 207.546 157.072 209.363 155.405 210.987C153.738 212.611 150.649 214.023 146.172 215.213C141.689 216.405 135.86 217.362 128.819 218.075C114.736 219.502 95.9731 219.938 73.819 219.403C29.524 218.333 -28.1492 213.384 -88.6875 204.806C-149.226 196.227 -201.121 185.649 -236.085 175.487C-253.572 170.405 -266.788 165.437 -274.738 160.888C-278.713 158.614 -281.347 156.458 -282.556 154.459C-283.763 152.463 -283.537 150.646 -281.87 149.022Z" stroke="#FF668A" stroke-width="1.27527"/>
<path opacity="0.724138" d="M-273.18 140.145C-269.248 136.958 -259.856 134.902 -245.74 134.028C-231.684 133.158 -213.235 133.481 -191.65 134.926C-148.491 137.816 -92.9787 145.179 -35.3599 156.338C22.259 167.497 71.0249 180.328 103.291 192.046C119.429 197.906 131.405 203.475 138.306 208.404C145.236 213.354 146.91 217.554 142.978 220.74C139.046 223.927 129.654 225.983 115.538 226.857C101.482 227.727 83.0333 227.405 61.4476 225.959C18.2888 223.07 -37.2232 215.706 -94.8421 204.547C-152.461 193.388 -201.227 180.557 -233.493 168.839C-249.631 162.979 -261.607 157.41 -268.508 152.481C-275.438 147.531 -277.112 143.332 -273.18 140.145Z" stroke="#FF668A" stroke-width="1.27527"/>
<path opacity="0.758621" d="M-262.906 131.579C-258.407 128.489 -248.778 126.794 -234.817 126.485C-220.894 126.176 -202.9 127.255 -182.048 129.599C-140.355 134.285 -87.4271 144.007 -33.1667 157.66C21.0937 171.313 66.3591 186.298 95.683 199.481C110.349 206.075 120.993 212.202 126.794 217.473C132.611 222.759 133.464 227.092 128.966 230.183C124.467 233.273 114.838 234.968 100.877 235.277C86.9536 235.586 68.9601 234.507 48.1077 232.164C6.41475 227.477 -46.513 217.755 -100.773 204.102C-155.034 190.449 -200.299 175.464 -229.623 162.281C-244.289 155.687 -254.933 149.56 -260.734 144.289C-266.551 139.003 -267.404 134.67 -262.906 131.579Z" stroke="#FF668A" stroke-width="1.27527"/>
<path opacity="0.793103" d="M-251.14 123.394C-246.106 120.429 -236.319 119.108 -222.613 119.364C-208.928 119.619 -191.526 121.445 -171.567 124.668C-131.657 131.114 -81.7172 143.119 -31.2286 159.161C19.2601 175.204 60.6805 192.228 86.8393 206.775C99.9221 214.05 109.155 220.688 113.814 226.261C118.479 231.843 118.498 236.279 113.464 239.244C108.431 242.21 98.6431 243.53 84.937 243.274C71.2527 243.019 53.8508 241.194 33.891 237.97C-6.01822 231.525 -55.9583 219.52 -106.447 203.477C-156.936 187.435 -198.356 170.411 -224.515 155.864C-237.598 148.588 -246.831 141.95 -251.489 136.377C-256.155 130.795 -256.173 126.36 -251.14 123.394Z" stroke="#FF668A" stroke-width="1.27527"/>
<path opacity="0.827586" d="M-237.991 115.654C-232.46 112.841 -222.594 111.908 -209.241 112.724C-195.899 113.541 -179.22 116.098 -160.305 120.176C-122.483 128.33 -75.9104 142.525 -29.5777 160.834C16.7551 179.142 54.016 198.074 76.8121 213.873C88.2127 221.774 95.9664 228.872 99.4488 234.704C102.934 240.54 102.109 245.046 96.5779 247.86C91.0474 250.673 81.1809 251.607 67.8285 250.79C54.4859 249.974 37.8074 247.417 18.8921 243.338C-18.9297 235.184 -65.5023 220.989 -111.835 202.68C-158.168 184.372 -195.429 165.44 -218.225 149.641C-229.625 141.74 -237.379 134.643 -240.862 128.81C-244.346 122.974 -243.521 118.468 -237.991 115.654Z" stroke="#FF668A" stroke-width="1.27527"/>
<path opacity="0.862069" d="M-223.574 108.422C-217.589 105.787 -207.725 105.248 -194.822 106.619C-181.921 107.989 -166.091 111.258 -148.364 116.159C-112.916 125.959 -70.0646 142.234 -28.2396 162.668C13.5855 183.102 46.4047 203.797 65.6668 220.726C75.2997 229.192 81.5171 236.694 83.7986 242.741C86.0805 248.79 84.4107 253.332 78.4262 255.968C72.4416 258.603 62.5771 259.142 49.6741 257.771C36.7732 256.401 20.9435 253.132 3.21633 248.231C-32.2312 238.431 -75.0831 222.156 -116.908 201.722C-158.733 181.288 -191.552 160.593 -210.814 143.664C-220.447 135.198 -226.665 127.696 -228.946 121.648C-231.228 115.6 -229.558 111.058 -223.574 108.422Z" stroke="#FF668A" stroke-width="1.27527"/>
<path opacity="0.896552" d="M-208.061 101.782C-201.67 99.3483 -191.888 99.2096 -179.526 101.122C-167.161 103.035 -152.296 106.99 -135.889 112.675C-103.078 124.043 -64.2649 142.272 -27.258 164.672C9.74891 187.071 37.8846 209.366 53.4728 227.293C61.268 236.258 65.9052 244.107 66.9708 250.323C68.0362 256.538 65.5282 261.08 59.1373 263.514C52.7463 265.948 42.9639 266.086 30.6016 264.174C18.2369 262.261 3.37243 258.306 -13.0353 252.621C-45.8459 241.253 -84.6591 223.024 -121.666 200.624C-158.673 178.225 -186.809 155.93 -202.397 138.003C-210.192 129.038 -214.829 121.189 -215.895 114.973C-216.96 108.758 -214.452 104.216 -208.061 101.782Z" stroke="#FF668A" stroke-width="1.27527"/>
<path opacity="0.931035" d="M-191.493 95.72C-184.748 93.5096 -175.13 93.7717 -163.4 96.2125C-151.665 98.6543 -137.879 103.265 -122.917 109.692C-92.9949 122.544 -58.5199 142.59 -26.6178 166.789C5.28428 190.989 28.5194 214.719 40.3141 233.511C46.2121 242.909 49.2344 251.048 49.0761 257.387C48.9179 263.724 45.5857 268.23 38.8414 270.441C32.0971 272.651 22.4786 272.389 10.7486 269.948C-0.985878 267.506 -14.7718 262.895 -29.7344 256.469C-59.6562 243.617 -94.1313 223.571 -126.033 199.371C-157.935 175.172 -181.17 151.442 -192.965 132.649C-198.863 123.252 -201.886 115.113 -201.727 108.774C-201.569 102.437 -198.237 97.9303 -191.493 95.72Z" stroke="#FF668A" stroke-width="1.27527"/>
<path opacity="0.965517" d="M-174.039 90.313C-166.997 88.3457 -157.622 89.0058 -146.612 91.9563C-135.595 94.9082 -122.991 100.141 -109.586 107.261C-82.7784 121.499 -52.9027 143.212 -26.3482 169.028C0.206222 194.844 18.3648 219.831 26.2777 239.348C30.2345 249.108 31.6195 257.475 30.2386 263.891C28.8584 270.303 24.7239 274.738 17.6826 276.705C10.6413 278.672 1.26646 278.012 -9.74445 275.062C-20.7607 272.11 -33.3649 266.877 -46.7698 259.757C-73.5776 245.519 -103.453 223.806 -130.008 197.99C-156.562 172.174 -174.721 147.187 -182.634 127.67C-186.59 117.91 -187.975 109.543 -186.595 103.127C-185.214 96.7148 -181.08 92.2803 -174.039 90.313Z" stroke="#FF668A" stroke-width="1.27527"/>
<path d="M-155.901 85.6245C-148.623 83.9178 -139.567 84.9698 -129.356 88.4078C-119.139 91.8474 -107.809 97.6625 -96.0589 105.422C-72.5609 120.938 -47.503 144.153 -26.4902 171.389C-5.47749 198.626 7.47399 224.679 11.4499 244.774C13.438 254.822 13.1769 263.355 10.5847 269.798C7.99376 276.238 3.08749 280.563 -4.19146 282.27C-11.4704 283.977 -20.5256 282.925 -30.7371 279.487C-40.9537 276.047 -52.2842 270.232 -64.034 262.473C-87.532 246.956 -112.59 223.742 -133.603 196.505C-154.615 169.268 -167.567 143.215 -171.543 123.121C-173.531 113.073 -173.27 104.54 -170.678 98.0968C-168.087 91.657 -163.18 87.3313 -155.901 85.6245Z" stroke="#FF668A" stroke-width="1.27527"/>
</g>
</g>
<defs>
<filter id="filter0_f_2067_886" x="-304.447" y="56.2954" width="502.492" height="231.603" filterUnits="userSpaceOnUse" color-interpolation-filters="sRGB">
<feFlood flood-opacity="0" result="BackgroundImageFix"/>
<feBlend mode="normal" in="SourceGraphic" in2="BackgroundImageFix" result="shape"/>
<feGaussianBlur stdDeviation="2.15" result="effect1_foregroundBlur_2067_886"/>
</filter>
</defs>
</svg>
