<svg width="182" height="35" xmlns="http://www.w3.org/2000/svg" xmlns:xlink="http://www.w3.org/1999/xlink" xml:space="preserve" overflow="hidden"><defs><linearGradient x1="0.651249" y1="20.7453" x2="30.1226" y2="14.148" gradientUnits="userSpaceOnUse" spreadMethod="pad" id="fill0"><stop offset="0" stop-color="#C132CE"/><stop offset="1" stop-color="#425AFA"/></linearGradient><linearGradient x1="5.8929" y1="20.4133" x2="10.2286" y2="34.8562" gradientUnits="userSpaceOnUse" spreadMethod="pad" id="fill1"><stop offset="0" stop-color="#425AFA"/><stop offset="0.16" stop-color="#5A52F2"/><stop offset="0.55" stop-color="#9241DE"/><stop offset="0.84" stop-color="#B436D3"/><stop offset="1" stop-color="#C132CE"/></linearGradient><linearGradient x1="17.8614" y1="32.1803" x2="27.4767" y2="20.3671" gradientUnits="userSpaceOnUse" spreadMethod="pad" id="fill2"><stop offset="0" stop-color="#C132CE"/><stop offset="0.1" stop-color="#AB39D6"/><stop offset="0.28" stop-color="#8545E3"/><stop offset="0.47" stop-color="#684EED"/><stop offset="0.65" stop-color="#5355F4"/><stop offset="0.83" stop-color="#4659F9"/><stop offset="1" stop-color="#425AFA"/></linearGradient></defs><g transform="translate(-801 -503)"><path d="M44.5113 9.31911C45.8714 9.22209 47.2315 9.22209 48.6243 9.31911L48.9155 12.0676 49.1099 12.0676C49.628 9.90115 51.7329 8.99575 54.6798 8.99575 54.8094 10.0952 54.8094 11.906 54.6798 13.0054 51.0205 13.0054 50.0167 13.7491 49.1423 16.0772L49.1423 26.1337C48.0087 26.2954 45.6125 26.2954 44.5113 26.1337L44.5113 9.31911Z" fill="#FFFFFF" transform="matrix(1.00672 0 0 1 801 503)"/><path d="M71.7783 19.1491C69.6086 19.3108 64.6216 19.3431 61.8366 19.1814L61.8366 19.9898C61.8366 22.2857 63.1643 22.706 65.9493 22.706 67.8601 22.706 69.2202 22.5443 71.0335 22.1887 71.1631 23.288 71.1631 24.8402 71.0335 25.9396 68.7666 26.3275 66.9533 26.5216 64.8159 26.5216 60.1526 26.5216 57.2059 25.1312 57.2059 21.0246L57.2059 14.5575C57.2059 10.2569 60.3145 8.99575 64.6216 8.99575 68.8962 8.99575 71.7783 10.8066 71.7783 15.4305L71.7783 19.1491ZM67.2445 15.2365C67.2445 13.0377 65.9817 12.779 64.5568 12.779 63.1319 12.779 61.8366 13.0377 61.8366 15.2365L61.8366 16.4976 64.3303 16.3359 67.2445 16.3359 67.2445 15.2365Z" fill="#FFFFFF" transform="matrix(1.00672 0 0 1 801 503)"/><path d="M87.1928 22.1887C87.1928 25.3252 84.7318 26.5216 80.7161 26.5216 78.9999 26.5216 77.0246 26.3923 75.1786 26.0689 75.0166 24.905 75.0166 23.579 75.1786 22.4473 76.9274 22.7384 78.6759 22.8353 80.036 22.8353 81.3316 22.8353 82.5621 22.7384 82.5621 21.639L82.5621 21.0246C82.5621 20.0868 81.9145 19.9252 80.8133 19.6342L77.8987 18.7934C76.053 18.276 75.049 17.112 75.049 14.9778L75.049 13.1994C75.049 10.1922 77.6398 8.99575 81.7525 8.99575 83.3717 8.99575 85.0555 9.12511 86.9339 9.51311 87.0956 10.6772 87.0956 11.9706 86.9339 13.1024 84.9583 12.7467 83.6954 12.6497 82.2705 12.6497 80.8781 12.6497 79.68 12.7467 79.68 13.8461L79.68 14.4605C79.68 15.2689 80.4248 15.5599 81.4285 15.8509L84.149 16.5946C86.1567 17.1443 87.1928 18.1467 87.1928 20.6042L87.1928 22.1887Z" fill="#FFFFFF" transform="matrix(1.00672 0 0 1 801 503)"/><path d="M105.198 19.1491C103.028 19.3108 98.0414 19.3431 95.2564 19.1814L95.2564 19.9898C95.2564 22.2857 96.5841 22.706 99.369 22.706 101.28 22.706 102.64 22.5443 104.453 22.1887 104.583 23.288 104.583 24.8402 104.453 25.9396 102.186 26.3275 100.373 26.5216 98.2357 26.5216 93.5724 26.5216 90.6254 25.1312 90.6254 21.0246L90.6254 14.5575C90.6254 10.2569 93.7343 8.99575 98.0414 8.99575 102.316 8.99575 105.198 10.8066 105.198 15.4305L105.198 19.1491ZM100.664 15.2365C100.664 13.0377 99.4014 12.779 97.9766 12.779 96.5517 12.779 95.2564 13.0377 95.2564 15.2365L95.2564 16.4976 97.7498 16.3359 100.664 16.3359 100.664 15.2365Z" fill="#FFFFFF" transform="matrix(1.00672 0 0 1 801 503)"/><path d="M109.246 9.31911C110.606 9.22209 111.966 9.22209 113.359 9.31911L113.65 12.0676 113.845 12.0676C114.363 9.90115 116.468 8.99575 119.414 8.99575 119.544 10.0952 119.544 11.906 119.414 13.0054 115.755 13.0054 114.751 13.7491 113.877 16.0772L113.877 26.1337C112.743 26.2954 110.347 26.2954 109.246 26.1337L109.246 9.31911Z" fill="#FFFFFF" transform="matrix(1.00672 0 0 1 801 503)"/><path d="M122.523 9.44844C123.657 9.28674 126.053 9.28674 127.154 9.44844L130.684 21.8976 134.181 9.44844C135.283 9.28674 137.582 9.28674 138.683 9.44844L133.534 26.1337C132.109 26.2951 129.129 26.2951 127.705 26.1337L122.523 9.44844Z" fill="#FFFFFF" transform="matrix(1.00672 0 0 1 801 503)"/><path d="M156.591 21.1216C156.591 25.1312 153.547 26.5216 149.013 26.5216 144.479 26.5216 141.435 25.1312 141.435 21.1216L141.435 14.4605C141.435 10.2892 144.479 8.99575 149.013 8.99575 153.547 8.99575 156.591 10.2892 156.591 14.4605L156.591 21.1216ZM151.96 15.3982C151.96 13.167 150.6 12.9083 149.013 12.9083 147.394 12.9083 146.066 13.167 146.066 15.3982L146.066 20.1192C146.066 22.318 147.394 22.5767 149.013 22.5767 150.6 22.5767 151.96 22.318 151.96 20.1192L151.96 15.3982Z" fill="#FFFFFF" transform="matrix(1.00672 0 0 1 801 503)"/><path d="M165.626 6.82928C164.492 6.99095 161.934 6.99095 160.768 6.82928L160.704 3.14303C161.869 2.98133 164.557 2.98133 165.723 3.14303L165.626 6.82928ZM160.898 9.44844C161.999 9.28677 164.395 9.28677 165.529 9.44844L165.529 26.1337C164.395 26.2954 161.999 26.2954 160.898 26.1337L160.898 9.44844Z" fill="#FFFFFF" transform="matrix(1.00672 0 0 1 801 503)"/><path d="M170.257 9.31911C171.617 9.22209 172.977 9.22209 174.369 9.31911L174.661 12.0676 174.855 12.0676C175.373 9.90115 177.478 8.99575 180.425 8.99575 180.555 10.0952 180.555 11.906 180.425 13.0054 176.766 13.0054 175.762 13.7491 174.887 16.0772L174.887 26.1337C173.754 26.2954 171.358 26.2954 170.257 26.1337L170.257 9.31911Z" fill="#FFFFFF" transform="matrix(1.00672 0 0 1 801 503)"/><path d="M30.295 26.1982 15.1881 17.5 15.1881 0.0873207 30.295 8.80175 30.295 26.1982Z" fill="#80D8FF" transform="matrix(1.00672 0 0 1 801 503)"/><path d="M0.0812121 26.1982 15.1881 17.5 15.1881 0.0873207 0.0812121 8.80175 0.0812121 26.1982Z" fill="#7ACFFF" transform="matrix(1.00672 0 0 1 801 503)"/><path d="M15.1881 26.1982 30.295 17.5 15.1881 8.80172 0.0812121 17.5 15.1881 26.1982Z" fill="url(#fill0)" transform="matrix(1.00672 0 0 1 801 503)"/><path d="M15.1881 34.9126 0.0812121 26.1982 0.0812121 8.80172 15.1881 17.5 15.1881 34.9126Z" fill="#E4F0FE" fill-opacity="0.3" transform="matrix(1.00672 0 0 1 801 503)"/><path d="M0.0812121 26.1982 15.1881 34.9126 15.1881 26.1982 0.0812121 17.5 0.0812121 26.1982Z" fill="url(#fill1)" transform="matrix(1.00672 0 0 1 801 503)"/><path d="M15.1881 34.9126 30.295 26.1982 30.295 8.80172 15.1881 17.5 15.1881 34.9126Z" fill="#D0E6FF" fill-opacity="0.3" transform="matrix(1.00672 0 0 1 801 503)"/><path d="M30.295 26.1982 15.1881 34.9126 15.1881 26.1982 30.295 17.5 30.295 26.1982Z" fill="url(#fill2)" transform="matrix(1.00672 0 0 1 801 503)"/><path d="M15.1881 17.5 30.295 8.80175 15.1881 0.0873207 0.0812121 8.80175 15.1881 17.5Z" fill="#FFFFFF" fill-opacity="0.3" transform="matrix(1.00672 0 0 1 801 503)"/></g></svg>