<svg width="19" height="13" viewBox="0 0 19 13" fill="none" xmlns="http://www.w3.org/2000/svg">
<path d="M15.4262 1.14199C14.2623 0.660651 13.031 0.318642 11.7648 0.125C11.6071 0.377025 11.4228 0.716 11.2958 0.985672C9.93061 0.804236 8.578 0.804236 7.23795 0.985672C7.11095 0.716061 6.92252 0.377025 6.76335 0.125C5.49594 0.318731 4.26359 0.661611 3.09917 1.1445C0.782042 4.23945 0.153887 7.25744 0.46793 10.2327C2.0048 11.2471 3.49418 11.8634 4.95847 12.2666C5.32238 11.8243 5.64407 11.356 5.92022 10.8666C5.39447 10.6896 4.88764 10.4716 4.40574 10.2151C4.53256 10.132 4.65638 10.0454 4.77704 9.95545C7.69716 11.1627 10.87 11.1627 13.7553 9.95545C13.8765 10.0448 14.0003 10.1314 14.1266 10.2151C13.6439 10.4723 13.1361 10.6908 12.6093 10.8678C12.887 11.3593 13.2082 11.828 13.5711 12.2679C15.0368 11.8647 16.5275 11.2484 18.0644 10.2327C18.4329 6.78366 17.4349 3.7933 15.4262 1.14192V1.14199ZM6.31807 8.40298C5.44146 8.40298 4.72255 7.67963 4.72255 6.7988C4.72255 5.91796 5.42614 5.19338 6.31807 5.19338C7.21008 5.19338 7.92891 5.91668 7.91359 6.7988C7.91498 7.67963 7.21008 8.40298 6.31807 8.40298ZM12.2142 8.40298C11.3376 8.40298 10.6188 7.67963 10.6188 6.7988C10.6188 5.91796 11.3223 5.19338 12.2142 5.19338C13.1063 5.19338 13.8251 5.91668 13.8098 6.7988C13.8098 7.67963 13.1063 8.40298 12.2142 8.40298Z" fill="white"/>
<path d="M15.4262 1.14199C14.2623 0.660651 13.031 0.318642 11.7648 0.125C11.6071 0.377025 11.4228 0.716 11.2958 0.985672C9.93061 0.804236 8.578 0.804236 7.23795 0.985672C7.11095 0.716061 6.92252 0.377025 6.76335 0.125C5.49594 0.318731 4.26359 0.661611 3.09917 1.1445C0.782042 4.23945 0.153887 7.25744 0.46793 10.2327C2.0048 11.2471 3.49418 11.8634 4.95847 12.2666C5.32238 11.8243 5.64407 11.356 5.92022 10.8666C5.39447 10.6896 4.88764 10.4716 4.40574 10.2151C4.53256 10.132 4.65638 10.0454 4.77704 9.95545C7.69716 11.1627 10.87 11.1627 13.7553 9.95545C13.8765 10.0448 14.0003 10.1314 14.1266 10.2151C13.6439 10.4723 13.1361 10.6908 12.6093 10.8678C12.887 11.3593 13.2082 11.828 13.5711 12.2679C15.0368 11.8647 16.5275 11.2484 18.0644 10.2327C18.4329 6.78366 17.4349 3.7933 15.4262 1.14192V1.14199ZM6.31807 8.40298C5.44146 8.40298 4.72255 7.67963 4.72255 6.7988C4.72255 5.91796 5.42614 5.19338 6.31807 5.19338C7.21008 5.19338 7.92891 5.91668 7.91359 6.7988C7.91498 7.67963 7.21008 8.40298 6.31807 8.40298ZM12.2142 8.40298C11.3376 8.40298 10.6188 7.67963 10.6188 6.7988C10.6188 5.91796 11.3223 5.19338 12.2142 5.19338C13.1063 5.19338 13.8251 5.91668 13.8098 6.7988C13.8098 7.67963 13.1063 8.40298 12.2142 8.40298Z" fill="url(#paint0_linear_89_6289)"/>
<defs>
<linearGradient id="paint0_linear_89_6289" x1="-0.330785" y1="-0.554491" x2="20.4953" y2="8.74475" gradientUnits="userSpaceOnUse">
<stop stop-color="#F8A55F"/>
<stop offset="0.5" stop-color="#E43345"/>
<stop offset="1" stop-color="#CB4CC4"/>
</linearGradient>
</defs>
</svg>
