<svg width="20" height="16" fill="none" xmlns="http://www.w3.org/2000/svg"><path d="M.703 14.139a.858.858 0 1 0 1.417.967l-1.417-.967ZM5.4 8.774l-.186-.837-.331.073-.191.28.708.484ZM12.78 7.13l.186.837.232-.052.172-.163-.59-.622Zm7.064-5.87a.858.858 0 0 0-.835-.879L11.293.181a.858.858 0 1 0-.045 1.714l6.86.18-.18 6.858a.858.858 0 0 0 1.715.045l.201-7.716ZM2.12 15.107l3.99-5.849-1.417-.967-3.99 5.849 1.417.967ZM5.588 9.61l7.378-1.643-.373-1.674-7.378 1.643.373 1.674Zm7.782-1.858 6.207-5.892-1.18-1.244-6.208 5.892 1.181 1.244Z" fill="#18A800"/></svg>