<svg width="4" height="6" viewBox="0 0 4 6" fill="none" xmlns="http://www.w3.org/2000/svg">
<path fillRule="evenodd" clip-rule="evenodd" d="M1.31134e-07 3C2.85138e-05 3.13287 0.0528338 3.26029 0.146801 3.35422L2.65193 5.85936C2.74643 5.95062 2.87299 6.00112 3.00435 5.99998C3.13572 5.99884 3.26138 5.94615 3.35428 5.85325C3.44717 5.76036 3.49987 5.63469 3.50101 5.50333C3.50215 5.37196 3.45165 5.2454 3.36038 5.1509L1.20948 3L3.36038 0.849095C3.45165 0.7546 3.50215 0.62804 3.50101 0.496672C3.49987 0.365305 3.44717 0.239641 3.35428 0.146747C3.26138 0.0538528 3.13572 0.00116035 3.00435 1.88087e-05C2.87299 -0.00112273 2.74643 0.0493781 2.65193 0.140644L0.146801 2.64577C0.0528337 2.73971 2.85021e-05 2.86713 1.31134e-07 3Z" fill="white"/>
</svg>
