<svg width="20" height="18" viewBox="0 0 20 18" fill="none" xmlns="http://www.w3.org/2000/svg">
<path d="M14.9392 0C16.2802 0 17.5702 0.53 18.5192 1.481C19.4692 2.43 20.0002 3.71 20.0002 5.05V12.95C20.0002 15.74 17.7302 18 14.9392 18H5.06024C2.26924 18 0.000244141 15.74 0.000244141 12.95V5.05C0.000244141 2.26 2.25924 0 5.06024 0H14.9392ZM16.0702 5.2C15.8602 5.189 15.6602 5.26 15.5092 5.4L11.0002 9C10.4202 9.481 9.58924 9.481 9.00024 9L4.50024 5.4C4.18924 5.17 3.75924 5.2 3.50024 5.47C3.23024 5.74 3.20024 6.17 3.42924 6.47L3.56024 6.6L8.11024 10.15C8.67024 10.59 9.34924 10.83 10.0602 10.83C10.7692 10.83 11.4602 10.59 12.0192 10.15L16.5302 6.54L16.6102 6.46C16.8492 6.17 16.8492 5.75 16.5992 5.46C16.4602 5.311 16.2692 5.22 16.0702 5.2Z" fill="url(#paint0_linear_89_6267)"/>
<defs>
<linearGradient id="paint0_linear_89_6267" x1="-0.814939" y1="-1.00725" x2="24.4255" y2="7.56086" gradientUnits="userSpaceOnUse">
<stop stop-color="#F8A55F"/>
<stop offset="0.5" stop-color="#E43345"/>
<stop offset="1" stop-color="#CB4CC4"/>
</linearGradient>
</defs>
</svg>
