<svg width="17" height="16" viewBox="0 0 17 16" fill="none" xmlns="http://www.w3.org/2000/svg">
<path fillRule="evenodd" clip-rule="evenodd" d="M1.11867 9.03815L1.05739 9.13548H1.05979C1.04742 9.15487 1.04053 9.17725 1.03985 9.20025C1.03918 9.22324 1.04474 9.24599 1.05596 9.26607C1.06717 9.28616 1.08361 9.30283 1.10354 9.31432C1.12347 9.32581 1.14613 9.33169 1.16913 9.33134H5.02254C5.04364 9.33199 5.06456 9.32739 5.08344 9.31795C5.10231 9.30851 5.11855 9.29453 5.13068 9.27727C5.18134 9.19986 5.22826 9.12006 5.27127 9.03815C5.6065 8.47823 5.90329 7.87264 6.00903 7.42566C6.26376 6.33824 5.72065 4.59117 5.09584 3.18655C5.08628 3.1656 5.07128 3.1476 5.05239 3.13444C5.0335 3.12127 5.01143 3.11342 4.98847 3.1117C4.96551 3.10998 4.94251 3.11446 4.92187 3.12466C4.90123 3.13487 4.88371 3.15043 4.87115 3.16972L1.11867 9.03815ZM16.4547 10.4361C15.7959 12.8421 14.1649 14.8462 12.0104 16H4.82188C4.18741 15.9991 3.55935 15.8731 2.97359 15.6293C2.38782 15.3855 1.85584 15.0287 1.40804 14.5792C0.960241 14.1298 0.605404 13.5964 0.363808 13.0098C0.122211 12.4231 -0.00140939 11.7946 1.21214e-05 11.1601V11.0736C1.21214e-05 11.0039 0.0576869 10.9462 0.129781 10.9462H4.31723C4.40134 10.9462 4.46141 11.0219 4.45541 11.1048C4.42416 11.3764 4.47583 11.6564 4.6056 11.9099C4.85312 12.4145 5.36979 12.7294 5.92612 12.7294H8.00001V11.1108H5.94774C5.9237 11.1106 5.90017 11.1038 5.87971 11.0911C5.85925 11.0785 5.84262 11.0605 5.83162 11.0391C5.82062 11.0178 5.81566 10.9938 5.81728 10.9698C5.8189 10.9458 5.82703 10.9227 5.84081 10.903L5.9165 10.7948C6.10875 10.5173 6.38632 10.0907 6.66267 9.60289C6.85012 9.27366 7.03276 8.9228 7.17935 8.56955C7.19723 8.5308 7.2128 8.49067 7.22835 8.45059C7.23788 8.42603 7.24741 8.40149 7.25745 8.3773C7.26723 8.34944 7.27708 8.32203 7.2868 8.29496C7.31652 8.21227 7.34506 8.13283 7.36679 8.05408C7.39509 7.96544 7.42113 7.87609 7.44489 7.78613C7.51338 7.48574 7.54222 7.16852 7.54222 6.8405C7.54222 6.71073 7.53741 6.57495 7.5254 6.44759C7.51988 6.3185 7.50423 6.18841 7.48869 6.05916C7.4873 6.04764 7.48592 6.03614 7.48454 6.02464C7.47111 5.89885 7.45186 5.77376 7.42687 5.64975C7.39453 5.46092 7.35526 5.27335 7.30912 5.08742L7.29229 5.01532C7.28282 4.98121 7.27368 4.9476 7.2646 4.91425C7.23916 4.82071 7.21427 4.7292 7.18415 4.63443C7.06974 4.2396 6.93825 3.84993 6.79004 3.46651C6.7384 3.32229 6.68149 3.18001 6.61942 3.03996C6.55093 2.87064 6.48094 2.71413 6.41481 2.56625C6.3974 2.52732 6.38026 2.489 6.36349 2.45119C6.32343 2.37346 6.28576 2.29452 6.25054 2.21448C6.21146 2.12814 6.17019 2.0428 6.12678 1.95855C6.11485 1.9322 6.10189 1.90627 6.08918 1.88083C6.07116 1.84478 6.05365 1.80973 6.04027 1.77591L5.78674 1.30971C5.75189 1.24602 5.80957 1.16792 5.87926 1.18835L7.46532 1.61731H7.47733L7.6852 1.67738L7.9159 1.74227L8.00001 1.7651V0.824274C8.00001 0.368882 8.36289 2.87033e-06 8.81587 2.87033e-06C8.92284 -0.000284906 9.02876 0.0210693 9.12725 0.0627809C9.22575 0.104493 9.31479 0.165699 9.38902 0.242718C9.54243 0.397458 9.62876 0.606375 9.62933 0.824274V2.22289L9.79875 2.26975C9.80137 2.27106 9.8041 2.27237 9.80689 2.27371C9.81688 2.2785 9.82754 2.2836 9.836 2.29018C9.87685 2.31902 9.93693 2.36468 10.0126 2.42235C10.0496 2.45042 10.0879 2.48304 10.1292 2.51824C10.1551 2.54029 10.1822 2.56336 10.2109 2.58697C10.4482 2.78027 10.6782 2.98227 10.9006 3.19255C11.1577 3.43166 11.4461 3.71163 11.7225 4.02283C11.8006 4.11175 11.8751 4.19826 11.9532 4.29439C11.9878 4.33849 12.0245 4.38208 12.0608 4.42527C12.1027 4.47503 12.1441 4.52426 12.1815 4.57315C12.2764 4.69811 12.3737 4.82788 12.4638 4.96246C12.4811 4.99013 12.5001 5.01826 12.5192 5.04645C12.544 5.08313 12.5689 5.1199 12.59 5.15591C12.7053 5.32653 12.8039 5.50196 12.8988 5.67859C12.9396 5.75909 12.9793 5.84801 13.0141 5.93452C13.1211 6.17123 13.2052 6.41034 13.2568 6.65305C13.2739 6.70457 13.2856 6.75772 13.2917 6.81166V6.82368C13.3085 6.89216 13.3145 6.96786 13.3205 7.04476C13.3544 7.39991 13.3109 7.75817 13.1932 8.09493C13.185 8.11701 13.177 8.13921 13.1689 8.16148C13.1402 8.24097 13.1111 8.32128 13.0754 8.40013C12.9853 8.60439 12.882 8.81226 12.7582 9.00331C12.7268 9.05874 12.6904 9.11559 12.6545 9.17167C12.6437 9.18853 12.633 9.20533 12.6224 9.22199C12.5982 9.25752 12.5731 9.29226 12.5487 9.3262C12.521 9.36457 12.4941 9.40193 12.4698 9.43827C12.4038 9.52926 12.3344 9.61783 12.262 9.70382L12.2619 9.70385C12.1983 9.79036 12.1346 9.87686 12.0625 9.95495C11.9652 10.0727 11.8702 10.1832 11.7681 10.289C11.7104 10.3587 11.648 10.4308 11.5807 10.4932C11.5313 10.5503 11.4789 10.602 11.4306 10.6497C11.4178 10.6623 11.4053 10.6746 11.3932 10.6867C11.2923 10.7876 11.213 10.8633 11.1433 10.9294L10.9787 11.076C10.9558 11.099 10.9246 11.112 10.8922 11.1121H9.62933V12.7294H11.2178C11.5723 12.7294 11.9099 12.6044 12.1839 12.3713L12.1871 12.3685C12.2855 12.2829 12.6879 11.9328 13.1643 11.4076C13.18 11.3896 13.2011 11.3769 13.2244 11.3716L16.4547 10.4361Z" fill="#D9D9D9"/>
<path fillRule="evenodd" clip-rule="evenodd" d="M1.11867 9.03815L1.05739 9.13548H1.05979C1.04742 9.15487 1.04053 9.17725 1.03985 9.20025C1.03918 9.22324 1.04474 9.24599 1.05596 9.26607C1.06717 9.28616 1.08361 9.30283 1.10354 9.31432C1.12347 9.32581 1.14613 9.33169 1.16913 9.33134H5.02254C5.04364 9.33199 5.06456 9.32739 5.08344 9.31795C5.10231 9.30851 5.11855 9.29453 5.13068 9.27727C5.18134 9.19986 5.22826 9.12006 5.27127 9.03815C5.6065 8.47823 5.90329 7.87264 6.00903 7.42566C6.26376 6.33824 5.72065 4.59117 5.09584 3.18655C5.08628 3.1656 5.07128 3.1476 5.05239 3.13444C5.0335 3.12127 5.01143 3.11342 4.98847 3.1117C4.96551 3.10998 4.94251 3.11446 4.92187 3.12466C4.90123 3.13487 4.88371 3.15043 4.87115 3.16972L1.11867 9.03815ZM16.4547 10.4361C15.7959 12.8421 14.1649 14.8462 12.0104 16H4.82188C4.18741 15.9991 3.55935 15.8731 2.97359 15.6293C2.38782 15.3855 1.85584 15.0287 1.40804 14.5792C0.960241 14.1298 0.605404 13.5964 0.363808 13.0098C0.122211 12.4231 -0.00140939 11.7946 1.21214e-05 11.1601V11.0736C1.21214e-05 11.0039 0.0576869 10.9462 0.129781 10.9462H4.31723C4.40134 10.9462 4.46141 11.0219 4.45541 11.1048C4.42416 11.3764 4.47583 11.6564 4.6056 11.9099C4.85312 12.4145 5.36979 12.7294 5.92612 12.7294H8.00001V11.1108H5.94774C5.9237 11.1106 5.90017 11.1038 5.87971 11.0911C5.85925 11.0785 5.84262 11.0605 5.83162 11.0391C5.82062 11.0178 5.81566 10.9938 5.81728 10.9698C5.8189 10.9458 5.82703 10.9227 5.84081 10.903L5.9165 10.7948C6.10875 10.5173 6.38632 10.0907 6.66267 9.60289C6.85012 9.27366 7.03276 8.9228 7.17935 8.56955C7.19723 8.5308 7.2128 8.49067 7.22835 8.45059C7.23788 8.42603 7.24741 8.40149 7.25745 8.3773C7.26723 8.34944 7.27708 8.32203 7.2868 8.29496C7.31652 8.21227 7.34506 8.13283 7.36679 8.05408C7.39509 7.96544 7.42113 7.87609 7.44489 7.78613C7.51338 7.48574 7.54222 7.16852 7.54222 6.8405C7.54222 6.71073 7.53741 6.57495 7.5254 6.44759C7.51988 6.3185 7.50423 6.18841 7.48869 6.05916C7.4873 6.04764 7.48592 6.03614 7.48454 6.02464C7.47111 5.89885 7.45186 5.77376 7.42687 5.64975C7.39453 5.46092 7.35526 5.27335 7.30912 5.08742L7.29229 5.01532C7.28282 4.98121 7.27368 4.9476 7.2646 4.91425C7.23916 4.82071 7.21427 4.7292 7.18415 4.63443C7.06974 4.2396 6.93825 3.84993 6.79004 3.46651C6.7384 3.32229 6.68149 3.18001 6.61942 3.03996C6.55093 2.87064 6.48094 2.71413 6.41481 2.56625C6.3974 2.52732 6.38026 2.489 6.36349 2.45119C6.32343 2.37346 6.28576 2.29452 6.25054 2.21448C6.21146 2.12814 6.17019 2.0428 6.12678 1.95855C6.11485 1.9322 6.10189 1.90627 6.08918 1.88083C6.07116 1.84478 6.05365 1.80973 6.04027 1.77591L5.78674 1.30971C5.75189 1.24602 5.80957 1.16792 5.87926 1.18835L7.46532 1.61731H7.47733L7.6852 1.67738L7.9159 1.74227L8.00001 1.7651V0.824274C8.00001 0.368882 8.36289 2.87033e-06 8.81587 2.87033e-06C8.92284 -0.000284906 9.02876 0.0210693 9.12725 0.0627809C9.22575 0.104493 9.31479 0.165699 9.38902 0.242718C9.54243 0.397458 9.62876 0.606375 9.62933 0.824274V2.22289L9.79875 2.26975C9.80137 2.27106 9.8041 2.27237 9.80689 2.27371C9.81688 2.2785 9.82754 2.2836 9.836 2.29018C9.87685 2.31902 9.93693 2.36468 10.0126 2.42235C10.0496 2.45042 10.0879 2.48304 10.1292 2.51824C10.1551 2.54029 10.1822 2.56336 10.2109 2.58697C10.4482 2.78027 10.6782 2.98227 10.9006 3.19255C11.1577 3.43166 11.4461 3.71163 11.7225 4.02283C11.8006 4.11175 11.8751 4.19826 11.9532 4.29439C11.9878 4.33849 12.0245 4.38208 12.0608 4.42527C12.1027 4.47503 12.1441 4.52426 12.1815 4.57315C12.2764 4.69811 12.3737 4.82788 12.4638 4.96246C12.4811 4.99013 12.5001 5.01826 12.5192 5.04645C12.544 5.08313 12.5689 5.1199 12.59 5.15591C12.7053 5.32653 12.8039 5.50196 12.8988 5.67859C12.9396 5.75909 12.9793 5.84801 13.0141 5.93452C13.1211 6.17123 13.2052 6.41034 13.2568 6.65305C13.2739 6.70457 13.2856 6.75772 13.2917 6.81166V6.82368C13.3085 6.89216 13.3145 6.96786 13.3205 7.04476C13.3544 7.39991 13.3109 7.75817 13.1932 8.09493C13.185 8.11701 13.177 8.13921 13.1689 8.16148C13.1402 8.24097 13.1111 8.32128 13.0754 8.40013C12.9853 8.60439 12.882 8.81226 12.7582 9.00331C12.7268 9.05874 12.6904 9.11559 12.6545 9.17167C12.6437 9.18853 12.633 9.20533 12.6224 9.22199C12.5982 9.25752 12.5731 9.29226 12.5487 9.3262C12.521 9.36457 12.4941 9.40193 12.4698 9.43827C12.4038 9.52926 12.3344 9.61783 12.262 9.70382L12.2619 9.70385C12.1983 9.79036 12.1346 9.87686 12.0625 9.95495C11.9652 10.0727 11.8702 10.1832 11.7681 10.289C11.7104 10.3587 11.648 10.4308 11.5807 10.4932C11.5313 10.5503 11.4789 10.602 11.4306 10.6497C11.4178 10.6623 11.4053 10.6746 11.3932 10.6867C11.2923 10.7876 11.213 10.8633 11.1433 10.9294L10.9787 11.076C10.9558 11.099 10.9246 11.112 10.8922 11.1121H9.62933V12.7294H11.2178C11.5723 12.7294 11.9099 12.6044 12.1839 12.3713L12.1871 12.3685C12.2855 12.2829 12.6879 11.9328 13.1643 11.4076C13.18 11.3896 13.2011 11.3769 13.2244 11.3716L16.4547 10.4361Z" fill="url(#paint0_linear_89_6292)"/>
<defs>
<linearGradient id="paint0_linear_89_6292" x1="-3.23483" y1="-3.23861" x2="21.5134" y2="4.32231" gradientUnits="userSpaceOnUse">
<stop stop-color="#F8A55F"/>
<stop offset="0.5" stop-color="#E43345"/>
<stop offset="1" stop-color="#CB4CC4"/>
</linearGradient>
</defs>
</svg>
