<svg width="25" height="20" viewBox="0 0 25 20" fill="none" xmlns="http://www.w3.org/2000/svg">
<path d="M24.3643 2.66662C24.7069 2.18933 24.5977 1.52465 24.1204 1.18203C23.6431 0.8394 22.9785 0.948567 22.6358 1.42586L24.3643 2.66662ZM18.3789 9.18014L18.5853 10.2238L18.9979 10.1422L19.2431 9.80052L18.3789 9.18014ZM9.18052 10.9988L8.97418 9.95518L8.68524 10.0123L8.46682 10.2099L9.18052 10.9988ZM0.246247 18.067C0.216876 18.6538 0.668764 19.1533 1.25557 19.1827L10.8181 19.6613C11.4049 19.6906 11.9044 19.2388 11.9337 18.6519C11.9631 18.0651 11.5112 17.5656 10.9244 17.5363L2.42443 17.1108L2.84987 8.61083C2.87924 8.02403 2.42735 7.52452 1.84055 7.49515C1.25374 7.46578 0.754236 7.91767 0.724866 8.50447L0.246247 18.067ZM22.6358 1.42586L17.5147 8.55976L19.2431 9.80052L24.3643 2.66662L22.6358 1.42586ZM18.1726 8.13651L8.97418 9.95518L9.38686 12.0424L18.5853 10.2238L18.1726 8.13651ZM8.46682 10.2099L0.59505 17.3312L2.02244 18.9091L9.89422 11.7877L8.46682 10.2099Z" fill="#DF0B64"/>
</svg>
