<svg width="4" height="6" viewBox="0 0 4 6" fill="none" xmlns="http://www.w3.org/2000/svg">
<path fillRule="evenodd" clip-rule="evenodd" d="M3.50098 3C3.50095 3.13287 3.44814 3.26029 3.35418 3.35422L0.849045 5.85936C0.75455 5.95062 0.62799 6.00112 0.496623 5.99998C0.365256 5.99884 0.239592 5.94615 0.146698 5.85325C0.0538032 5.76036 0.00111102 5.63469 -3.05197e-05 5.50333C-0.00117206 5.37196 0.0493286 5.2454 0.140594 5.1509L2.2915 3L0.140595 0.849095C0.0493288 0.7546 -0.00117185 0.62804 -3.03009e-05 0.496672C0.00111125 0.365305 0.0538034 0.239641 0.146698 0.146747C0.239592 0.0538528 0.365256 0.00116035 0.496623 1.88087e-05C0.627991 -0.00112273 0.754551 0.0493781 0.849045 0.140644L3.35418 2.64577C3.44814 2.73971 3.50095 2.86713 3.50098 3Z" fill="white"/>
</svg>
