<svg width="14" height="14" viewBox="0 0 14 14" fill="none" xmlns="http://www.w3.org/2000/svg">
<path d="M0.0337188 0.533325L5.3838 7.6668L0 13.4667H1.21177L5.92539 8.38868L9.73372 13.4667H13.8571L8.20592 5.93201L13.2172 0.533325H12.0054L7.66456 5.2099L4.15714 0.533325H0.0337188ZM1.81568 1.42333H3.70997L12.0749 12.5767H10.1807L1.81568 1.42333Z" fill="white"/>
<path d="M0.0337188 0.533325L5.3838 7.6668L0 13.4667H1.21177L5.92539 8.38868L9.73372 13.4667H13.8571L8.20592 5.93201L13.2172 0.533325H12.0054L7.66456 5.2099L4.15714 0.533325H0.0337188ZM1.81568 1.42333H3.70997L12.0749 12.5767H10.1807L1.81568 1.42333Z" fill="url(#paint0_linear_89_6290)"/>
<defs>
<linearGradient id="paint0_linear_89_6290" x1="-0.564806" y1="-0.1904" x2="17.0509" y2="5.57586" gradientUnits="userSpaceOnUse">
<stop stop-color="#F8A55F"/>
<stop offset="0.5" stop-color="#E43345"/>
<stop offset="1" stop-color="#CB4CC4"/>
</linearGradient>
</defs>
</svg>
