<svg width="264" height="265" viewBox="0 0 264 265" fill="none" xmlns="http://www.w3.org/2000/svg">
<path opacity="0.4" d="M187.605 153.801C179.233 174.6 165.408 190.91 149.829 200.468C134.25 210.026 116.927 212.828 101.545 206.637C86.1634 200.446 75.6116 186.425 70.9974 168.74C66.3832 151.055 67.7107 129.715 76.082 108.916C84.4533 88.1162 98.279 71.8066 113.858 62.2486C129.437 52.6907 146.759 49.8889 162.141 56.0798C177.523 62.2707 188.075 76.2912 192.689 93.9765C197.303 111.662 195.976 133.002 187.605 153.801Z" stroke="white" stroke-opacity="0.56" stroke-width="0.304476"/>
<path opacity="0.4" d="M194.047 157.367C178.611 195.72 138.328 215.597 104.095 201.819C69.8621 188.041 54.5809 145.8 70.0172 107.447C85.4535 69.0942 125.736 49.2167 159.969 62.9948C194.202 76.7729 209.483 119.014 194.047 157.367Z" stroke="white" stroke-opacity="0.56" stroke-width="0.352767"/>
<circle cx="158.177" cy="55.1766" r="1.65908" transform="rotate(66.9237 158.177 55.1766)" fill="#D9D9D9"/>
<circle cx="102.635" cy="206.635" r="1.24615" transform="rotate(66.9237 102.635 206.635)" fill="#D9D9D9"/>
</svg>
