<svg width="290" height="288" viewBox="0 0 290 288" fill="none" xmlns="http://www.w3.org/2000/svg">
<path opacity="0.4" d="M204.477 82.7182C227.211 105.451 240.956 132.856 244.808 158.78C248.661 184.703 242.621 209.129 225.809 225.941C208.997 242.754 184.571 248.793 158.648 244.94C132.724 241.088 105.319 227.343 82.586 204.61C59.8528 181.876 46.108 154.471 42.2552 128.548C38.4025 102.624 44.4421 78.1984 61.2542 61.3863C78.0662 44.5743 102.492 38.5346 128.416 42.3874C154.339 46.2401 181.744 59.985 204.477 82.7182Z" stroke="white" stroke-opacity="0.56" stroke-width="0.436593"/>
<path opacity="0.4" d="M212.802 76.2232C254.721 118.142 258.302 182.454 220.887 219.87C183.471 257.286 119.159 253.704 77.2402 211.785C35.3213 169.866 31.7394 105.554 69.1552 68.1382C106.571 30.7224 170.883 34.3043 212.802 76.2232Z" stroke="white" stroke-opacity="0.56" stroke-width="0.505838"/>
<circle cx="56.7837" cy="66.4336" r="1.85568" fill="white"/>
<circle cx="110.97" cy="226.764" r="2.59796" fill="white"/>
</svg>
