<svg width="959" height="690" viewBox="0 0 959 690" fill="none" xmlns="http://www.w3.org/2000/svg">
<g opacity="0.2">
<path opacity="0.0344828" d="M500.027 143.781C510.005 139.506 518.646 141.188 525.573 148.461C532.471 155.704 537.519 168.346 540.505 185.424C546.476 219.569 544.184 271.296 532.192 332.512C520.201 393.729 500.79 452.792 479.121 498.781C468.283 521.783 456.904 541.464 445.644 556.488C434.337 571.575 423.392 581.65 413.415 585.925C403.438 590.2 394.796 588.518 387.869 581.245C380.971 574.003 375.924 561.36 372.937 544.283C366.966 510.137 369.258 458.41 381.25 397.194C393.242 335.977 412.653 276.914 434.322 230.925C445.159 207.923 456.538 188.242 467.798 173.218C479.105 158.131 490.05 148.057 500.027 143.781Z" stroke="#FF668A" stroke-width="2"/>
<path opacity="0.0689655" d="M530.822 130.276C535.686 128.457 540.05 128.172 543.886 129.41C547.728 130.65 550.998 133.408 553.661 137.594C558.987 145.965 561.824 159.947 562.118 178.484C562.706 215.547 553.13 270.669 533.234 335.066C513.337 399.462 486.902 460.892 460.265 508.139C446.942 531.77 433.596 551.805 421.028 566.871C414.744 574.404 408.694 580.648 402.981 585.463C397.276 590.271 391.971 593.602 387.107 595.421C382.244 597.241 377.88 597.526 374.043 596.288C370.201 595.048 366.932 592.29 364.268 588.104C358.942 579.732 356.106 565.751 355.812 547.214C355.224 510.151 364.8 455.029 384.696 390.632C404.593 326.235 431.028 264.806 457.665 217.559C470.987 193.928 484.334 173.892 496.901 158.827C503.185 151.294 509.236 145.05 514.949 140.235C520.654 135.427 525.959 132.096 530.822 130.276Z" stroke="#FF668A" stroke-width="2"/>
<path opacity="0.103448" d="M561.079 118.544C565.774 117.053 569.825 117.129 573.189 118.8C576.557 120.472 579.179 123.716 581.035 128.436C584.746 137.875 585.348 153.09 582.946 172.945C578.144 212.643 561.355 270.74 533.704 337.826C506.053 404.912 472.794 468.24 441.39 516.384C425.683 540.463 410.47 560.7 396.689 575.692C389.797 583.19 383.307 589.328 377.34 593.963C371.378 598.595 366.035 601.654 361.34 603.145C356.645 604.636 352.594 604.56 349.229 602.889C345.862 601.217 343.239 597.973 341.383 593.252C337.672 583.814 337.071 568.599 339.473 548.744C344.275 509.046 361.063 450.948 388.714 383.863C416.365 316.777 449.625 253.449 481.029 205.305C496.735 181.225 511.949 160.989 525.73 145.997C532.622 138.499 539.111 132.361 545.078 127.725C551.041 123.094 556.384 120.035 561.079 118.544Z" stroke="#FF668A" stroke-width="2"/>
<path opacity="0.137931" d="M590.581 108.657C595.064 107.502 598.778 107.932 601.646 110.024C604.514 112.115 606.469 115.823 607.502 121.042C609.567 131.476 607.927 147.809 602.847 168.83C592.689 210.862 568.814 271.492 533.618 340.755C498.423 410.019 458.591 474.762 422.658 523.436C404.687 547.78 387.721 568.062 372.831 582.866C365.383 590.271 358.503 596.256 352.325 600.679C346.146 605.103 340.81 607.865 336.327 609.02C331.843 610.176 328.13 609.746 325.261 607.654C322.393 605.563 320.439 601.855 319.406 596.636C317.34 586.202 318.98 569.869 324.06 548.847C334.218 506.816 358.093 446.186 393.289 376.922C428.485 307.658 468.316 242.916 504.249 194.242C522.221 169.898 539.186 149.615 554.077 134.811C561.525 127.406 568.404 121.422 574.582 116.999C580.762 112.575 586.097 109.813 590.581 108.657Z" stroke="#FF668A" stroke-width="2"/>
<path opacity="0.172414" d="M619.118 100.68C623.352 99.8612 626.707 100.634 629.058 103.135C631.405 105.63 632.675 109.775 632.877 115.453C633.279 126.804 629.408 144.131 621.687 166.158C606.249 210.202 575.469 272.902 532.996 343.816C490.523 414.73 444.421 480.394 404.232 529.225C384.133 553.647 365.544 573.821 349.657 588.323C341.71 595.578 334.491 601.364 328.148 605.541C321.792 609.726 316.51 612.17 312.277 612.989C308.044 613.808 304.688 613.035 302.337 610.534C299.99 608.039 298.72 603.894 298.519 598.216C298.117 586.865 301.987 569.538 309.708 547.511C325.146 503.467 355.927 440.767 398.4 369.853C440.873 298.939 486.975 233.275 527.163 184.444C547.263 160.022 565.852 139.848 581.739 125.346C589.686 118.091 596.904 112.304 603.248 108.128C609.603 103.943 614.885 101.499 619.118 100.68Z" stroke="#FF668A" stroke-width="2"/>
<path opacity="0.206897" d="M646.491 94.656C650.44 94.1701 653.422 95.2726 655.237 98.1674C657.044 101.049 657.619 105.6 656.986 111.694C655.72 123.876 649.647 142.063 639.344 164.929C618.742 210.649 581.29 274.941 531.862 346.965C482.434 418.989 430.413 485.074 386.275 533.69C364.201 558.004 344.129 577.914 327.367 592.002C318.981 599.05 311.478 604.594 305.017 608.494C298.527 612.41 293.343 614.518 289.394 615.003C285.445 615.489 282.463 614.387 280.648 611.492C278.841 608.61 278.266 604.06 278.899 597.965C280.165 585.784 286.238 567.596 296.541 544.73C317.143 499.01 354.595 434.718 404.023 362.694C453.451 290.67 505.472 224.586 549.61 175.97C571.684 151.656 591.756 131.746 608.518 117.658C616.904 110.609 624.407 105.065 630.868 101.166C637.358 97.249 642.542 95.1418 646.491 94.656Z" stroke="#FF668A" stroke-width="2"/>
<path opacity="0.241379" d="M672.506 90.616C676.144 90.4548 678.739 91.8733 680.002 95.1445C681.255 98.3919 681.13 103.314 679.666 109.778C676.74 122.697 668.509 141.607 655.702 165.136C630.093 212.184 586.253 277.578 530.248 350.163C474.242 422.748 416.697 488.75 368.945 536.779C345.064 560.799 323.662 580.292 306.153 593.857C297.392 600.645 289.662 605.904 283.131 609.496C276.552 613.115 271.507 614.872 267.869 615.033C264.231 615.195 261.636 613.776 260.373 610.505C259.119 607.258 259.245 602.336 260.709 595.871C263.635 582.952 271.865 564.043 284.673 540.513C310.282 493.466 354.121 428.071 410.127 355.486C466.133 282.902 523.678 216.9 571.43 168.871C595.311 144.851 616.712 125.357 634.221 111.792C642.982 105.004 650.712 99.7454 657.243 96.1531C663.822 92.5344 668.868 90.7772 672.506 90.616Z" stroke="#FF668A" stroke-width="2"/>
<path opacity="0.275862" d="M696.978 88.5775C700.288 88.7289 702.487 90.4506 703.184 94.0768C703.873 97.6651 703.047 102.921 700.762 109.706C696.197 123.263 685.872 142.75 670.658 166.764C640.237 214.781 590.343 280.778 528.185 353.371C466.027 425.964 403.397 491.379 352.396 538.455C326.889 561.997 304.322 580.925 286.2 593.863C277.131 600.337 269.233 605.269 262.683 608.527C256.063 611.818 251.192 613.217 247.882 613.065C244.572 612.914 242.373 611.192 241.676 607.566C240.987 603.978 241.814 598.721 244.098 591.937C248.663 578.379 258.988 558.892 274.202 534.879C304.624 486.862 354.517 420.864 416.675 348.272C478.833 275.679 541.463 210.264 592.464 163.188C617.971 139.645 640.538 120.718 658.661 107.78C667.729 101.306 675.627 96.3734 682.178 93.1162C688.797 89.8246 693.668 88.4261 696.978 88.5775Z" stroke="#FF668A" stroke-width="2"/>
<path opacity="0.310345" d="M719.742 88.5375C722.719 88.9884 724.51 91.0024 724.631 94.957C724.75 98.8591 723.228 104.409 720.141 111.461C713.971 125.554 701.63 145.469 684.125 169.783C649.122 218.402 593.555 284.5 525.718 356.548C457.882 428.595 390.643 492.926 336.781 538.688C309.844 561.574 286.283 579.79 267.687 592C258.381 598.11 250.376 602.678 243.856 605.575C237.248 608.51 232.584 609.546 229.607 609.095C226.63 608.644 224.838 606.63 224.718 602.676C224.599 598.774 226.121 593.224 229.208 586.172C235.378 572.079 247.719 552.164 265.224 527.849C300.227 479.23 355.794 413.132 423.63 341.085C491.467 269.037 558.706 204.707 612.568 158.945C639.505 136.059 663.066 117.843 681.662 105.633C690.968 99.5228 698.973 94.9548 705.493 92.0582C712.101 89.1228 716.764 88.0866 719.742 88.5375Z" stroke="#FF668A" stroke-width="2"/>
<path opacity="0.344828" d="M740.637 90.4823C743.285 91.2223 744.658 93.52 744.198 97.7706C743.745 101.956 741.539 107.757 737.672 115.022C729.945 129.541 715.682 149.732 696.019 174.162C656.702 223.012 595.885 288.706 522.886 359.66C449.887 430.613 378.553 493.367 322.24 537.467C294.078 559.521 269.704 576.886 250.777 588.274C241.306 593.973 233.257 598.14 226.818 600.653C220.28 603.205 215.848 603.88 213.201 603.14C210.554 602.4 209.18 600.102 209.641 595.851C210.094 591.666 212.299 585.865 216.166 578.6C223.894 564.081 238.157 543.89 257.82 519.46C297.137 470.61 357.954 404.916 430.952 333.962C503.951 263.009 575.286 200.255 631.598 156.155C659.76 134.101 684.134 116.736 703.061 105.348C712.532 99.649 720.582 95.4818 727.02 92.9691C733.558 90.4174 737.99 89.7423 740.637 90.4823Z" stroke="#FF668A" stroke-width="2"/>
<path opacity="0.37931" d="M759.524 94.3823C761.849 95.4067 762.789 97.9813 761.751 102.49C760.729 106.926 757.856 112.932 753.24 120.355C744.014 135.188 727.938 155.499 706.268 179.858C662.936 228.567 597.333 293.356 519.728 362.675C442.123 431.993 367.236 492.693 308.904 534.794C279.731 555.848 254.731 572.228 235.619 582.706C226.056 587.95 218.025 591.683 211.719 593.792C205.311 595.935 201.131 596.254 198.806 595.23C196.48 594.205 195.54 591.631 196.578 587.122C197.6 582.686 200.473 576.68 205.089 569.257C214.315 554.424 230.391 534.113 252.062 509.754C295.393 461.045 360.997 396.256 438.601 326.937C516.206 257.619 591.093 196.919 649.426 154.818C678.598 133.764 703.598 117.384 722.71 106.906C732.273 101.662 740.304 97.9287 746.61 95.82C753.018 93.677 757.198 93.3578 759.524 94.3823Z" stroke="#FF668A" stroke-width="2"/>
<path opacity="0.413793" d="M776.271 100.191C778.28 101.502 778.771 104.346 777.164 109.07C775.582 113.722 772.065 119.886 766.734 127.409C756.081 142.442 738.316 162.718 714.803 186.82C667.788 235.016 597.898 298.406 516.279 365.562C434.659 432.718 356.791 490.901 296.884 530.68C266.924 550.574 241.489 565.844 222.34 575.331C212.758 580.079 204.808 583.349 198.685 585.037C192.467 586.751 188.556 586.721 186.547 585.41C184.539 584.099 184.047 581.255 185.654 576.531C187.237 571.88 190.754 565.716 196.085 558.193C206.738 543.16 224.503 522.884 248.015 498.782C295.031 450.586 364.92 387.195 446.54 320.04C528.16 252.884 606.028 194.701 665.935 154.921C695.895 135.027 721.33 119.758 740.479 110.271C750.061 105.523 758.011 102.253 764.134 100.565C770.352 98.8502 774.263 98.8805 776.271 100.191Z" stroke="#FF668A" stroke-width="2"/>
<path opacity="0.448276" d="M790.77 107.851C792.456 109.454 792.485 112.558 790.327 117.453C788.196 122.284 784.063 128.557 778.06 136.122C766.062 151.239 746.744 171.324 721.568 194.986C671.228 242.3 597.585 303.809 512.573 368.29C427.56 432.771 347.305 487.993 286.28 525.149C255.761 543.731 230.086 557.772 211.048 566.196C201.521 570.411 193.715 573.193 187.823 574.447C181.852 575.719 178.224 575.345 176.538 573.741C174.851 572.138 174.822 569.034 176.981 564.139C179.111 559.309 183.244 553.035 189.248 545.47C201.245 530.353 220.564 510.269 245.739 486.607C296.079 439.292 369.722 377.784 454.734 313.302C539.747 248.821 620.002 193.599 681.028 156.443C711.547 137.862 737.221 123.82 756.259 115.396C765.786 111.181 773.592 108.399 779.484 107.145C785.455 105.874 789.083 106.247 790.77 107.851Z" stroke="#FF668A" stroke-width="2"/>
<path opacity="0.482759" d="M802.924 117.287C804.275 119.189 803.831 122.537 801.142 127.561C798.481 132.532 793.765 138.866 787.135 146.414C773.885 161.498 753.163 181.238 726.517 204.279C673.237 250.351 596.403 309.509 508.645 370.825C420.888 432.141 338.857 483.981 277.18 518.229C246.334 535.357 220.618 548.064 201.836 555.359C192.439 559.009 184.837 561.281 179.222 562.092C173.548 562.912 170.22 562.199 168.87 560.298C167.519 558.396 167.963 555.047 170.652 550.024C173.313 545.053 178.029 538.719 184.659 531.171C197.909 516.086 218.631 496.346 245.277 473.305C298.557 427.234 375.391 368.076 463.149 306.76C550.906 245.444 632.938 193.604 694.614 159.356C725.46 142.228 751.177 129.521 769.958 122.226C779.355 118.575 786.957 116.304 792.572 115.492C798.246 114.672 801.574 115.385 802.924 117.287Z" stroke="#FF668A" stroke-width="2"/>
<path opacity="0.517241" d="M812.662 128.41C813.655 130.612 812.732 134.185 809.539 139.295C806.369 144.368 801.107 150.714 793.902 158.187C779.503 173.123 757.537 192.367 729.623 214.611C673.81 259.089 594.37 315.446 504.536 373.129C414.703 430.812 331.522 478.876 269.664 509.955C238.728 525.498 213.166 536.773 194.786 542.885C185.59 545.943 178.252 547.687 172.957 548.05C167.623 548.415 164.615 547.365 163.622 545.164C162.629 542.963 163.551 539.389 166.745 534.279C169.915 529.206 175.177 522.86 182.381 515.387C196.78 500.451 218.747 481.207 246.66 458.963C302.473 414.485 381.913 358.129 471.747 300.446C561.581 242.763 644.762 194.699 706.62 163.62C737.556 148.076 763.118 136.802 781.497 130.69C790.694 127.632 798.032 125.887 803.327 125.525C808.661 125.159 811.669 126.209 812.662 128.41Z" stroke="#FF668A" stroke-width="2"/>
<path opacity="0.551724" d="M819.922 141.123C820.534 143.618 819.134 147.392 815.463 152.55C811.809 157.686 806.042 163.995 798.319 171.336C782.883 186.008 759.84 204.609 730.873 225.887C672.953 268.432 591.514 321.557 500.288 375.168C409.063 428.779 325.366 472.7 263.8 500.374C233.009 514.215 207.798 523.972 189.961 528.853C181.037 531.296 174.018 532.501 169.083 532.413C164.126 532.324 161.461 530.939 160.849 528.444C160.237 525.95 161.637 522.175 165.308 517.017C168.962 511.881 174.729 505.572 182.452 498.231C197.888 483.559 220.931 464.958 249.898 443.68C307.818 401.136 389.257 348.01 480.483 294.399C571.708 240.788 655.405 196.867 716.971 169.193C747.762 155.352 772.973 145.595 790.81 140.714C799.734 138.271 806.753 137.066 811.688 137.154C816.645 137.243 819.31 138.628 819.922 141.123Z" stroke="#FF668A" stroke-width="2"/>
<path opacity="0.586207" d="M824.668 155.308C824.877 158.084 823.006 162.03 818.887 167.201C814.777 172.361 808.55 178.584 800.369 185.736C784.015 200.032 760.073 217.848 730.274 237.997C670.69 278.285 587.873 327.775 495.951 376.906C404.029 426.037 320.455 465.481 259.65 489.539C229.24 501.572 204.572 509.736 187.415 513.352C178.831 515.161 172.185 515.818 167.646 515.28C163.098 514.742 160.801 513.024 160.592 510.248C160.383 507.473 162.254 503.527 166.373 498.356C170.483 493.196 176.71 486.972 184.891 479.82C201.245 465.524 225.187 447.708 254.986 427.559C314.57 387.272 397.388 337.782 489.309 288.651C581.231 239.52 664.805 200.076 725.61 176.018C756.02 163.985 780.688 155.82 797.845 152.205C806.429 150.396 813.075 149.739 817.614 150.276C822.162 150.815 824.46 152.533 824.668 155.308Z" stroke="#FF668A" stroke-width="2"/>
<path opacity="0.62069" d="M826.88 170.846C826.669 173.884 824.339 177.969 819.803 183.117C815.267 188.263 808.628 194.354 800.052 201.262C782.907 215.073 758.251 231.968 727.846 250.834C667.055 288.557 583.49 334.035 491.573 378.312C399.655 422.589 316.842 457.256 257.263 477.516C227.465 487.649 203.53 494.16 187.182 496.483C179.005 497.645 172.781 497.75 168.672 496.768C164.561 495.785 162.656 493.74 162.867 490.702C163.078 487.665 165.409 483.579 169.945 478.431C174.48 473.285 181.12 467.194 189.696 460.286C206.841 446.476 231.497 429.581 261.901 410.714C322.693 372.991 406.257 327.513 498.175 283.236C590.092 238.959 672.906 204.292 732.485 184.032C762.283 173.9 786.218 167.388 802.566 165.065C810.743 163.903 816.966 163.798 821.076 164.78C825.186 165.763 827.091 167.808 826.88 170.846Z" stroke="#FF668A" stroke-width="2"/>
<path opacity="0.655172" d="M826.56 187.598C825.918 190.874 823.145 195.065 818.223 200.155C813.297 205.25 806.296 211.162 797.392 217.774C779.588 230.994 754.407 246.839 723.63 264.28C662.095 299.151 578.422 340.271 487.21 379.356C395.997 418.442 314.576 448.068 256.677 464.376C227.719 472.533 204.699 477.342 189.287 478.356C181.578 478.863 175.823 478.417 172.173 476.998C168.526 475.579 167.037 473.215 167.679 469.939C168.32 466.663 171.094 462.472 176.016 457.381C180.942 452.287 187.943 446.375 196.847 439.763C214.65 426.543 239.832 410.698 270.609 393.257C332.144 358.386 415.817 317.266 507.029 278.18C598.242 239.095 679.663 209.469 737.562 193.161C766.52 185.004 789.539 180.195 804.952 179.181C812.66 178.674 818.416 179.12 822.066 180.539C825.713 181.958 827.202 184.322 826.56 187.598Z" stroke="#FF668A" stroke-width="2"/>
<path opacity="0.689655" d="M823.724 205.424C822.647 208.911 819.452 213.172 814.179 218.17C808.898 223.175 801.589 228.865 792.425 235.13C774.1 247.658 748.586 262.334 717.673 278.216C655.865 309.97 572.722 346.418 482.91 380.016C393.098 413.614 313.69 437.974 257.914 450.207C230.017 456.325 208.088 459.397 193.727 459.096C186.546 458.946 181.301 457.953 178.137 456.106C174.978 454.263 173.925 451.591 175.002 448.104C176.08 444.617 179.274 440.356 184.548 435.358C189.829 430.353 197.138 424.663 206.301 418.398C224.627 405.87 250.14 391.194 281.054 375.312C342.862 343.558 426.005 307.11 515.816 273.512C605.628 239.914 685.036 215.554 740.813 203.321C768.71 197.203 790.638 194.131 805 194.432C812.181 194.582 817.425 195.576 820.589 197.422C823.749 199.265 824.802 201.937 823.724 205.424Z" stroke="#FF668A" stroke-width="2"/>
<path opacity="0.724138" d="M818.415 224.169C815.39 231.508 803.997 241.385 785.212 253.178C766.505 264.921 740.855 278.315 710.042 292.517C648.434 320.913 566.456 352.414 478.729 380.268C391.002 408.122 314.214 427.032 260.985 435.099C234.362 439.133 213.692 440.446 200.49 438.834C187.232 437.216 181.777 432.688 184.801 425.35C187.826 418.011 199.219 408.134 218.004 396.341C236.711 384.598 262.361 371.204 293.174 357.002C354.782 328.606 436.761 297.105 524.487 269.251C612.214 241.397 689.002 222.487 742.231 214.42C768.854 210.386 789.524 209.073 802.726 210.685C815.984 212.303 821.439 216.831 818.415 224.169Z" stroke="#FF668A" stroke-width="2"/>
<path opacity="0.758621" d="M810.69 243.673C806.812 251.304 794.823 260.862 775.826 271.761C756.882 282.63 731.291 294.643 700.814 307.057C639.877 331.879 559.689 358.193 474.717 380.093C389.744 401.993 316.161 415.31 265.885 419.15C240.74 421.071 221.484 420.617 209.541 417.709C197.564 414.792 193.139 409.465 197.016 401.834C200.894 394.203 212.883 384.645 231.88 373.746C250.824 362.877 276.415 350.865 306.892 338.45C367.829 313.628 448.017 287.314 532.989 265.414C617.961 243.515 691.545 230.198 741.821 226.357C766.966 224.436 786.221 224.891 798.165 227.799C810.142 230.715 814.567 236.043 810.69 243.673Z" stroke="#FF668A" stroke-width="2"/>
<path opacity="0.793103" d="M800.625 263.773C795.918 271.633 783.428 280.794 764.359 290.723C745.321 300.637 719.985 311.177 690.077 321.71C630.277 342.771 552.491 363.7 470.921 379.479C389.351 395.259 319.534 402.883 272.594 402.471C249.118 402.265 231.423 400.05 220.826 395.869C210.213 391.681 206.86 385.586 211.568 377.725C216.276 369.865 228.766 360.705 247.834 350.776C266.872 340.862 292.208 330.321 322.116 319.788C381.917 298.728 459.702 277.799 541.272 262.019C622.842 246.24 692.659 238.615 739.599 239.027C763.075 239.233 780.771 241.449 791.367 245.63C801.981 249.817 805.333 255.913 800.625 263.773Z" stroke="#FF668A" stroke-width="2"/>
<path opacity="0.827586" d="M788.322 284.296C782.815 292.32 769.927 301.007 750.924 309.898C731.936 318.783 707.047 327.773 677.937 336.345C619.729 353.486 544.939 368.873 467.393 378.414C389.846 387.955 324.327 389.832 281.08 385.173C259.451 382.844 243.448 378.885 234.277 373.465C225.099 368.041 222.855 361.216 228.362 353.192C233.868 345.169 246.757 336.482 265.759 327.591C284.747 318.706 309.636 309.716 338.747 301.144C396.954 284.003 471.745 268.616 549.291 259.075C626.837 249.534 692.356 247.657 735.604 252.315C757.232 254.645 773.235 258.603 782.407 264.024C791.584 269.448 793.828 276.273 788.322 284.296Z" stroke="#FF668A" stroke-width="2"/>
<path opacity="0.862069" d="M773.891 305.071C767.626 313.191 754.444 321.332 735.645 329.124C716.85 336.915 692.596 344.287 664.505 350.835C608.333 363.929 537.106 373.659 464.174 376.891C391.241 380.123 330.517 376.241 291.289 367.375C271.671 362.941 257.48 357.273 249.802 350.655C242.122 344.037 241.014 336.529 247.279 328.409C253.544 320.29 266.726 312.149 285.525 304.357C304.321 296.566 328.575 289.194 356.666 282.646C412.838 269.552 484.065 259.822 556.997 256.59C629.929 253.358 690.653 257.24 729.882 266.106C749.499 270.539 763.69 276.208 771.369 282.826C779.049 289.444 780.156 296.952 773.891 305.071Z" stroke="#FF668A" stroke-width="2"/>
<path opacity="0.896552" d="M757.508 325.853C750.531 334 737.163 341.529 718.702 348.168C700.237 354.809 676.799 360.513 649.936 364.991C596.22 373.947 529.09 377.958 461.319 374.868C393.548 371.779 338.074 362.179 303.157 349.183C285.696 342.683 273.421 335.351 267.29 327.59C261.161 319.829 261.208 311.693 268.184 303.547C275.16 295.4 288.529 287.871 306.99 281.232C325.455 274.591 348.893 268.887 375.756 264.409C429.472 255.453 496.602 251.442 564.373 254.532C632.144 257.621 687.618 267.221 722.535 280.217C739.996 286.717 752.271 294.049 758.402 301.81C764.531 309.571 764.484 317.707 757.508 325.853Z" stroke="#FF668A" stroke-width="2"/>
<path opacity="0.931035" d="M739.236 346.631C731.605 354.735 718.162 361.589 700.175 367.027C682.182 372.467 659.736 376.457 634.308 378.831C583.458 383.576 520.939 381.829 458.849 372.432C396.758 363.034 346.957 347.782 316.615 330.747C301.442 322.229 291.175 313.287 286.637 304.438C282.101 295.591 283.31 286.885 290.941 278.782C298.571 270.678 312.015 263.824 330.001 258.386C347.994 252.946 370.44 248.956 395.868 246.582C446.719 241.837 509.237 243.584 571.328 252.982C633.418 262.379 683.22 277.631 713.562 294.666C728.734 303.184 739.002 312.126 743.539 320.976C748.075 329.822 746.866 338.528 739.236 346.631Z" stroke="#FF668A" stroke-width="2"/>
<path opacity="0.965517" d="M719.254 367.171C711.032 375.163 697.625 381.286 680.247 385.483C662.86 389.681 641.576 391.929 617.773 392.179C570.171 392.679 512.737 385.187 456.798 369.551C400.86 353.915 357.107 333.124 331.568 312.179C318.798 301.706 310.614 291.221 307.703 281.349C304.793 271.482 307.161 262.273 315.383 254.282C323.605 246.29 337.011 240.167 354.39 235.971C371.776 231.773 393.061 229.524 416.864 229.274C464.465 228.774 521.9 236.267 577.838 251.903C633.776 267.538 677.529 288.329 703.068 309.274C715.838 319.747 724.023 330.232 726.934 340.104C729.843 349.971 727.475 359.18 719.254 367.171Z" stroke="#FF668A" stroke-width="2"/>
<path d="M697.791 387.234C689.046 395.045 675.786 400.389 659.143 403.314C642.492 406.241 622.525 406.732 600.522 404.86C556.519 401.116 504.594 387.941 455.222 366.192C405.851 344.443 368.47 318.277 347.92 293.584C337.644 281.237 331.603 269.289 330.34 258.47C329.077 247.658 332.589 238.02 341.334 230.209C350.079 222.398 363.339 217.054 379.982 214.129C396.633 211.202 416.6 210.711 438.603 212.583C482.606 216.327 534.531 229.502 583.903 251.251C633.274 273 670.656 299.166 691.205 323.859C701.481 336.206 707.522 348.154 708.785 358.972C710.048 369.785 706.536 379.423 697.791 387.234Z" stroke="#FF668A" stroke-width="2"/>
</g>
</svg>
