<svg width="126" height="126" viewBox="0 0 126 126" fill="none" xmlns="http://www.w3.org/2000/svg">
<g clip-path="url(#clip0_89_6081)">
<g opacity="0.8">
<path fillRule="evenodd" clip-rule="evenodd" d="M54.851 61.8435C55.2345 61.9762 55.6558 62.0421 56.0764 62.1076C58.278 62.5807 60.8267 63.1653 63.1158 62.8909C66.1328 62.5047 67.9794 61.1769 68.9981 59.371C70.4298 56.8282 70.063 53.1587 68.4301 50.0879C66.8206 47.0305 64.0352 44.5353 60.9063 44.0589C58.7727 43.7137 56.435 44.3148 54.162 46.3719C51.572 48.6894 50.7659 51.8594 51.0389 55.2091C51.1225 56.4988 51.4094 57.7282 51.7719 59.0015C50.5734 58.5756 49.3641 58.1438 48.1397 57.7029C44.2009 56.1381 40.3068 54.0674 36.7611 51.7543C32.0336 48.7588 27.9772 45.0863 24.5767 40.6403C24.2398 40.2685 23.6511 40.1947 23.2505 40.4955C22.8505 40.7966 22.7788 41.3755 23.0772 41.8138C26.6156 46.4281 30.8157 50.2724 35.7333 53.3776C39.4239 55.6857 43.3902 57.8863 47.4731 59.4456C49.1749 60.0734 50.848 60.6848 52.5422 61.2197C53.6302 63.8872 55.129 66.3487 56.5687 68.1553C66.3375 80.0022 86.605 83.6351 101.348 84.1667C101.858 84.1953 102.277 83.8161 102.299 83.2966C102.32 82.7766 101.907 82.3606 101.396 82.3321C87.131 81.8102 67.4689 78.4388 58.0236 66.9561C56.9129 65.6055 55.7848 63.8013 54.851 61.8435ZM53.9686 59.649C54.757 59.9268 55.5789 60.1358 56.4374 60.2768C58.484 60.6604 60.7902 61.2827 62.8682 61.0637C65.1414 60.7801 66.5859 59.84 67.3405 58.5023C68.5472 56.3616 68.0962 53.4415 66.7595 50.985C65.4386 48.449 63.2197 46.2811 60.6131 45.9289C58.9493 45.6776 57.1772 46.1622 55.4327 47.7264C53.2771 49.6739 52.6581 52.3308 52.9086 55.0469C53.0147 56.6155 53.4057 58.1713 53.9686 59.649Z" fill="url(#paint0_linear_89_6081)"/>
<path fillRule="evenodd" clip-rule="evenodd" d="M101.931 83.441C101.505 83.638 100.962 83.7677 100.418 83.8971C99.3576 84.1717 98.295 84.3564 97.6102 84.6704C93.441 86.5194 88.4643 88.7888 85.0561 91.8752C84.6881 92.1947 84.6528 92.795 85.0016 93.1738C85.3498 93.5521 85.9217 93.6165 86.3281 93.2305C89.5719 90.3151 94.3472 88.1948 98.3843 86.3582C99.0998 86.0619 100.386 85.8299 101.463 85.565C102.397 85.3058 103.211 84.9779 103.727 84.4777C104.039 84.2143 104.251 83.539 103.733 82.7076C102.979 81.5628 100.3 79.3953 100.053 79.164C97.5471 76.8304 95.3879 74.6973 95.0221 71.1166C94.9514 70.6325 94.4823 70.2731 94.006 70.2642C93.4913 70.3217 93.1043 70.8078 93.1757 71.2923C93.6049 75.3529 95.9157 77.9282 98.7879 80.5618C98.998 80.6832 100.606 81.9663 101.6 83.0721C101.694 83.215 101.839 83.2992 101.931 83.441Z" fill="url(#paint1_linear_89_6081)"/>
</g>
</g>
<defs>
<linearGradient id="paint0_linear_89_6081" x1="103.225" y1="80.968" x2="24.6718" y2="37.9197" gradientUnits="userSpaceOnUse">
<stop stop-color="white"/>
<stop offset="0.9999" stop-color="white" stop-opacity="0.0833333"/>
<stop offset="1" stop-color="white" stop-opacity="0"/>
</linearGradient>
<linearGradient id="paint1_linear_89_6081" x1="102.024" y1="87.3493" x2="88.2425" y2="79.4677" gradientUnits="userSpaceOnUse">
<stop stop-color="white"/>
<stop offset="0.9999" stop-color="white" stop-opacity="0.0833333"/>
<stop offset="1" stop-color="white" stop-opacity="0"/>
</linearGradient>
<clipPath id="clip0_89_6081">
<rect width="92" height="92" fill="white" transform="translate(126 46) rotate(120)"/>
</clipPath>
</defs>
</svg>
