<svg width="214" height="570" viewBox="0 0 214 570" fill="none" xmlns="http://www.w3.org/2000/svg">
<path opacity="0.4" d="M404.235 163.526C449.177 208.468 476.349 262.646 483.966 313.894C491.582 365.142 479.643 413.431 446.407 446.667C413.171 479.903 364.882 491.843 313.634 484.226C262.385 476.61 208.208 449.437 163.266 404.496C118.325 359.554 91.1521 305.376 83.5355 254.128C75.9189 202.88 87.8589 154.591 121.095 121.355C154.331 88.1191 202.619 76.1792 253.868 83.7958C305.116 91.4124 359.294 118.585 404.235 163.526Z" stroke="white" stroke-opacity="0.56" stroke-width="0.863108"/>
<path opacity="0.4" d="M420.691 150.687C503.561 233.557 510.642 360.696 436.674 434.664C362.706 508.632 235.568 501.551 152.697 418.681C69.8273 335.811 62.7461 208.672 136.714 134.704C210.682 60.7358 337.821 67.817 420.691 150.687Z" stroke="white" stroke-opacity="0.56"/>
<circle cx="124.5" cy="383.5" r="4.5" fill="#D9D9D9"/>
</svg>
